{"glyphs":{"0":{"ha":747,"x_min":0,"x_max":0,"o":"m 375 986 b 683 656 560 986 683 854 l 683 321 b 375 -14 683 119 560 -14 b 64 321 189 -14 64 119 l 64 656 b 375 986 64 854 189 986 m 375 208 b 461 315 426 208 461 251 l 461 653 b 375 765 461 721 426 765 b 288 653 322 765 288 721 l 288 315 b 375 208 288 251 322 208 "},"1":{"ha":564,"x_min":0,"x_max":0,"o":"m 407 972 l 407 190 l 532 190 l 532 0 l 54 0 l 54 190 l 176 190 l 176 778 l 71 778 l 71 972 "},"2":{"ha":657,"x_min":0,"x_max":0,"o":"m 315 768 b 249 675 282 768 249 740 l 53 675 b 321 986 47 875 154 986 b 540 517 538 986 678 761 l 376 225 l 593 225 l 593 0 l 44 0 l 44 54 l 328 549 b 315 768 433 733 356 768 "},"3":{"ha":682,"x_min":0,"x_max":0,"o":"m 253 296 b 326 200 250 239 279 200 b 406 317 374 200 406 247 b 201 449 406 465 290 460 l 201 481 l 306 767 l 75 767 l 75 972 l 603 972 l 603 936 l 468 608 b 631 318 597 568 631 444 b 324 -14 631 119 508 -14 b 43 296 157 -14 44 110 "},"4":{"ha":724,"x_min":0,"x_max":0,"o":"m 375 182 l 24 182 l 24 292 l 339 972 l 592 972 l 592 386 l 675 386 l 675 182 l 592 182 l 592 0 l 375 0 m 392 376 l 392 532 l 404 697 l 400 697 l 281 376 "},"5":{"ha":688,"x_min":0,"x_max":0,"o":"m 271 640 b 324 643 289 642 307 643 b 639 317 496 639 639 567 b 342 -14 639 118 519 -14 b 57 296 171 -14 57 110 l 265 296 b 342 207 264 243 294 207 b 414 317 385 207 414 243 b 75 444 414 488 181 463 l 75 972 l 597 972 l 597 767 l 271 767 "},"6":{"ha":733,"x_min":0,"x_max":0,"o":"m 419 629 b 693 317 582 642 693 519 b 368 -14 693 118 563 -14 b 44 317 174 -14 44 118 b 104 531 44 388 75 471 l 321 972 l 583 972 m 368 200 b 456 317 421 200 456 247 b 368 439 456 399 429 439 b 281 317 308 439 281 399 b 368 200 281 247 315 200 "},"7":{"ha":663,"x_min":0,"x_max":0,"o":"m 90 0 l 343 750 l 36 750 l 36 972 l 658 972 l 658 936 l 329 0 "},"8":{"ha":735,"x_min":0,"x_max":0,"o":"m 578 553 b 688 310 656 492 688 403 b 368 -14 688 115 560 -14 b 47 307 175 -14 47 114 b 160 554 47 401 79 493 b 99 717 115 600 99 657 b 368 986 99 878 207 986 b 638 721 529 986 638 881 b 578 553 638 658 622 603 m 368 622 b 431 711 406 622 431 657 b 368 793 431 761 406 793 b 303 708 329 793 303 760 b 368 622 303 657 329 622 m 368 196 b 453 318 419 196 453 244 b 368 444 453 394 419 444 b 282 314 317 444 282 392 b 368 196 282 243 317 196 "},"9":{"ha":722,"x_min":0,"x_max":0,"o":"m 318 351 b 38 664 96 351 38 535 b 358 986 38 857 165 986 b 678 664 550 986 678 857 b 619 443 678 581 656 514 l 399 0 l 140 0 m 358 772 b 274 664 307 772 274 729 b 358 542 274 590 307 542 b 442 664 408 542 442 590 b 358 772 442 729 408 772 "},"A":{"ha":853,"x_min":0,"x_max":0,"o":"m 608 0 l 565 121 l 289 121 l 246 0 l -6 0 l -6 15 l 368 986 l 488 986 l 857 15 l 857 0 m 497 318 b 426 594 451 458 442 508 b 357 318 407 499 397 453 "},"Á":{"ha":853,"x_min":0,"x_max":0,"o":"m 425 1317 l 632 1239 l 632 1218 l 504 1043 l 324 1043 l 324 1065 m 608 0 l 565 121 l 289 121 l 246 0 l -6 0 l -6 15 l 368 986 l 488 986 l 857 15 l 857 0 m 497 318 b 426 594 451 458 442 508 b 357 318 407 499 397 453 "},"Ă":{"ha":853,"x_min":0,"x_max":0,"o":"m 360 1290 b 431 1219 364 1249 392 1221 b 501 1290 469 1219 497 1247 l 686 1290 b 428 1040 686 1140 583 1040 b 172 1290 279 1040 176 1140 m 608 0 l 565 121 l 289 121 l 246 0 l -6 0 l -6 15 l 368 986 l 488 986 l 857 15 l 857 0 m 497 318 b 426 594 451 458 442 508 b 357 318 407 499 397 453 "},"Â":{"ha":853,"x_min":0,"x_max":0,"o":"m 360 1040 l 140 1040 l 140 1063 l 314 1279 l 538 1279 l 710 1063 l 710 1040 l 493 1040 l 425 1139 m 608 0 l 565 121 l 289 121 l 246 0 l -6 0 l -6 15 l 368 986 l 488 986 l 857 15 l 857 0 m 497 318 b 426 594 451 458 442 508 b 357 318 407 499 397 453 "},"Ä":{"ha":853,"x_min":0,"x_max":0,"o":"m 274 1043 b 156 1157 215 1043 156 1082 b 274 1272 156 1229 207 1272 b 390 1157 335 1272 390 1231 b 274 1043 390 1088 338 1043 m 586 1043 b 469 1157 529 1043 469 1082 b 586 1272 469 1229 524 1272 b 701 1157 649 1272 701 1229 b 586 1043 701 1088 650 1043 m 608 0 l 565 121 l 289 121 l 246 0 l -6 0 l -6 15 l 368 986 l 488 986 l 857 15 l 857 0 m 497 318 b 426 594 451 458 442 508 b 357 318 407 499 397 453 "},"À":{"ha":853,"x_min":0,"x_max":0,"o":"m 226 1218 l 226 1239 l 432 1317 l 535 1065 l 535 1043 l 354 1043 m 608 0 l 565 121 l 289 121 l 246 0 l -6 0 l -6 15 l 368 986 l 488 986 l 857 15 l 857 0 m 497 318 b 426 594 451 458 442 508 b 357 318 407 499 397 453 "},"Ā":{"ha":853,"x_min":0,"x_max":0,"o":"m 622 1043 l 221 1043 l 221 1218 l 622 1218 m 608 0 l 565 121 l 289 121 l 246 0 l -6 0 l -6 15 l 368 986 l 488 986 l 857 15 l 857 0 m 497 318 b 426 594 451 458 442 508 b 357 318 407 499 397 453 "},"Ą":{"ha":853,"x_min":0,"x_max":0,"o":"m 889 -282 b 685 -342 836 -319 756 -344 b 526 -235 618 -342 546 -310 b 608 0 501 -140 538 -62 l 565 121 l 289 121 l 246 0 l -6 0 l -6 15 l 368 986 l 488 986 l 857 15 l 857 0 l 851 0 b 693 -129 739 0 682 -75 b 850 -135 706 -193 811 -174 m 469 389 b 426 572 451 442 439 507 b 385 388 413 506 400 436 l 363 324 l 493 324 "},"Å":{"ha":854,"x_min":0,"x_max":0,"o":"m 610 0 l 567 121 l 290 121 l 247 0 l -4 0 l -4 15 l 350 935 b 258 1090 294 963 258 1022 b 433 1265 258 1196 328 1265 b 604 1090 536 1265 604 1196 b 510 932 604 1019 567 958 l 858 15 l 858 0 m 433 1140 b 385 1090 404 1140 385 1121 b 433 1043 385 1063 404 1043 b 479 1090 461 1043 479 1063 b 433 1140 479 1121 461 1140 m 471 389 b 428 572 453 442 440 507 b 386 388 414 506 401 436 l 364 324 l 494 324 "},"Ǻ":{"ha":854,"x_min":0,"x_max":0,"o":"m 425 1432 l 624 1372 l 624 1357 l 510 1225 l 333 1225 l 333 1242 m 610 0 l 567 121 l 290 121 l 247 0 l -4 0 l -4 15 l 335 896 b 258 1043 288 926 258 982 b 433 1204 258 1136 328 1204 b 604 1043 536 1204 604 1136 b 525 892 604 978 574 922 l 858 15 l 858 0 m 385 1040 b 433 993 385 1013 404 993 b 479 1040 461 993 479 1013 b 433 1090 479 1071 461 1090 b 385 1040 404 1090 385 1071 m 471 389 b 428 572 453 442 440 507 b 386 388 414 506 401 436 l 364 324 l 494 324 "},"Ã":{"ha":853,"x_min":0,"x_max":0,"o":"m 161 1100 b 318 1271 178 1201 240 1271 b 554 1260 425 1271 531 1126 l 690 1208 b 533 1036 678 1113 633 1036 b 289 1040 442 1036 333 1172 m 608 0 l 565 121 l 289 121 l 246 0 l -6 0 l -6 15 l 368 986 l 488 986 l 857 15 l 857 0 m 497 318 b 426 594 451 458 442 508 b 357 318 407 499 397 453 "},"Æ":{"ha":994,"x_min":0,"x_max":0,"o":"m 1 38 l 357 969 l 929 969 l 929 749 l 671 749 l 671 610 l 900 610 l 900 400 l 671 400 l 671 219 l 938 219 l 938 0 l 468 0 l 468 213 l 296 213 l 231 0 l 1 0 m 476 756 l 475 756 l 369 419 l 468 419 "},"Ǽ":{"ha":994,"x_min":0,"x_max":0,"o":"m 574 1314 l 781 1236 l 781 1215 l 651 1040 l 471 1040 l 471 1063 m 1 38 l 357 969 l 929 969 l 929 749 l 671 749 l 671 610 l 900 610 l 900 400 l 671 400 l 671 219 l 938 219 l 938 0 l 468 0 l 468 213 l 296 213 l 231 0 l 1 0 m 476 756 l 475 756 l 369 419 l 468 419 "},"B":{"ha":806,"x_min":0,"x_max":0,"o":"m 729 694 b 640 510 729 635 707 553 b 761 285 718 457 761 374 b 471 0 761 111 646 0 l 85 0 l 85 972 l 440 972 b 729 694 614 972 729 864 m 419 590 b 492 669 461 590 490 622 b 419 757 493 722 464 757 l 321 757 l 321 590 m 451 218 b 524 301 492 218 524 251 b 451 390 524 354 492 390 l 321 390 l 321 218 "},"C":{"ha":896,"x_min":0,"x_max":0,"o":"m 43 485 b 465 986 43 786 213 986 b 858 614 638 986 831 874 l 628 614 b 465 757 603 714 547 757 b 282 486 356 757 282 649 b 467 219 282 326 356 219 b 629 374 549 219 611 268 l 861 374 b 465 -12 831 97 644 -12 b 43 485 213 -12 43 186 "},"Ć":{"ha":896,"x_min":0,"x_max":0,"o":"m 453 1331 l 651 1253 l 651 1232 l 529 1057 l 357 1057 l 357 1079 m 43 485 b 465 986 43 786 213 986 b 858 614 638 986 831 874 l 628 614 b 465 757 603 714 547 757 b 282 486 356 757 282 649 b 467 219 282 326 356 219 b 629 374 549 219 611 268 l 861 374 b 465 -12 831 97 644 -12 b 43 485 213 -12 43 186 "},"Č":{"ha":896,"x_min":0,"x_max":0,"o":"m 531 1282 l 743 1282 l 743 1260 l 574 1047 l 354 1047 l 185 1260 l 185 1282 l 396 1282 l 464 1185 m 43 485 b 465 986 43 786 213 986 b 858 614 638 986 831 874 l 628 614 b 465 757 603 714 547 757 b 282 486 356 757 282 649 b 467 219 282 326 356 219 b 629 374 549 219 611 268 l 861 374 b 465 -12 831 97 644 -12 b 43 485 213 -12 43 186 "},"Ç":{"ha":894,"x_min":0,"x_max":0,"o":"m 861 374 b 546 -6 835 139 697 24 l 532 -72 b 625 -210 600 -86 635 -149 b 290 -297 603 -356 407 -376 l 314 -169 b 433 -164 350 -193 426 -204 b 357 -101 442 -119 386 -101 l 379 -4 b 43 485 175 36 43 221 b 465 986 43 786 213 986 b 858 614 638 986 831 874 l 628 614 b 465 757 603 714 547 757 b 282 486 356 757 282 649 b 467 219 282 326 356 219 b 629 374 549 219 611 268 "},"Ĉ":{"ha":896,"x_min":0,"x_max":0,"o":"m 399 1056 l 181 1056 l 181 1078 l 353 1294 l 578 1294 l 749 1078 l 749 1056 l 533 1056 l 465 1154 m 43 485 b 465 986 43 786 213 986 b 858 614 638 986 831 874 l 628 614 b 465 757 603 714 547 757 b 282 486 356 757 282 649 b 467 219 282 326 356 219 b 629 374 549 219 611 268 l 861 374 b 465 -12 831 97 644 -12 b 43 485 213 -12 43 186 "},"Ċ":{"ha":896,"x_min":0,"x_max":0,"o":"m 463 1060 b 340 1181 394 1060 340 1106 b 463 1303 340 1256 393 1303 b 583 1181 532 1303 583 1258 b 463 1060 583 1107 533 1060 m 43 485 b 465 986 43 786 213 986 b 858 614 638 986 831 874 l 628 614 b 465 757 603 714 547 757 b 282 486 356 757 282 649 b 467 219 282 326 356 219 b 629 374 549 219 611 268 l 861 374 b 465 -12 831 97 644 -12 b 43 485 213 -12 43 186 "},"D":{"ha":858,"x_min":0,"x_max":0,"o":"m 406 971 b 814 490 650 971 814 779 b 406 0 817 196 654 0 l 85 0 l 85 971 m 403 229 b 572 488 504 229 572 332 b 403 743 572 640 504 743 l 325 743 l 325 229 "},"Ð":{"ha":867,"x_min":0,"x_max":0,"o":"m 822 490 b 414 0 825 196 663 0 l 93 0 l 93 394 l 15 394 l 15 565 l 93 565 l 93 971 l 414 971 b 822 490 658 971 822 779 m 411 229 b 581 488 513 229 581 332 b 411 743 581 640 513 743 l 333 743 l 333 565 l 447 565 l 447 394 l 333 394 l 333 229 "},"Ď":{"ha":858,"x_min":0,"x_max":0,"o":"m 449 1271 l 654 1271 l 654 1250 l 490 1043 l 278 1043 l 113 1250 l 113 1271 l 318 1271 l 385 1178 m 406 971 b 814 490 650 971 814 779 b 406 0 817 196 654 0 l 85 0 l 85 971 m 403 229 b 572 488 504 229 572 332 b 403 743 572 640 504 743 l 325 743 l 325 229 "},"Đ":{"ha":867,"x_min":0,"x_max":0,"o":"m 822 490 b 414 0 825 196 663 0 l 93 0 l 93 394 l 15 394 l 15 565 l 93 565 l 93 971 l 414 971 b 822 490 658 971 822 779 m 411 229 b 581 488 513 229 581 332 b 411 743 581 640 513 743 l 333 743 l 333 565 l 447 565 l 447 394 l 333 394 l 333 229 "},"E":{"ha":674,"x_min":0,"x_max":0,"o":"m 324 613 l 582 613 l 582 390 l 324 390 l 324 232 l 618 232 l 618 0 l 85 0 l 85 972 l 607 972 l 607 751 l 324 751 "},"É":{"ha":674,"x_min":0,"x_max":0,"o":"m 353 1318 l 560 1240 l 560 1219 l 432 1044 l 251 1044 l 251 1067 m 324 613 l 582 613 l 582 390 l 324 390 l 324 232 l 618 232 l 618 0 l 85 0 l 85 972 l 607 972 l 607 751 l 324 751 "},"Ĕ":{"ha":674,"x_min":0,"x_max":0,"o":"m 278 1272 b 346 1204 282 1232 308 1206 b 414 1272 383 1204 410 1231 l 592 1272 b 343 1032 592 1128 493 1032 b 97 1272 200 1032 101 1128 m 324 613 l 582 613 l 582 390 l 324 390 l 324 232 l 618 232 l 618 0 l 85 0 l 85 972 l 607 972 l 607 751 l 324 751 "},"Ě":{"ha":674,"x_min":0,"x_max":0,"o":"m 421 1288 l 629 1288 l 629 1265 l 463 1057 l 246 1057 l 81 1265 l 81 1288 l 286 1288 l 354 1192 m 324 613 l 582 613 l 582 390 l 324 390 l 324 232 l 618 232 l 618 0 l 85 0 l 85 972 l 607 972 l 607 751 l 324 751 "},"Ê":{"ha":674,"x_min":0,"x_max":0,"o":"m 289 1042 l 79 1042 l 79 1063 l 246 1276 l 460 1276 l 622 1063 l 622 1042 l 417 1042 l 351 1139 m 324 613 l 582 613 l 582 390 l 324 390 l 324 232 l 618 232 l 618 0 l 85 0 l 85 972 l 607 972 l 607 751 l 324 751 "},"Ë":{"ha":674,"x_min":0,"x_max":0,"o":"m 188 1046 b 65 1164 126 1046 65 1086 b 188 1283 65 1239 118 1283 b 308 1164 250 1283 308 1240 b 188 1046 308 1092 253 1046 m 513 1046 b 390 1164 454 1046 390 1086 b 513 1283 390 1239 447 1283 b 633 1164 576 1283 633 1239 b 513 1046 633 1092 579 1046 m 324 613 l 582 613 l 582 390 l 324 390 l 324 232 l 618 232 l 618 0 l 85 0 l 85 972 l 607 972 l 607 751 l 324 751 "},"Ė":{"ha":674,"x_min":0,"x_max":0,"o":"m 344 1039 b 215 1165 272 1039 215 1088 b 344 1293 215 1243 271 1293 b 474 1165 417 1293 474 1246 b 344 1039 474 1089 418 1039 m 324 613 l 582 613 l 582 390 l 324 390 l 324 232 l 618 232 l 618 0 l 85 0 l 85 972 l 607 972 l 607 751 l 324 751 "},"È":{"ha":674,"x_min":0,"x_max":0,"o":"m 168 1217 l 168 1238 l 375 1315 l 476 1064 l 476 1042 l 296 1042 m 324 613 l 582 613 l 582 390 l 324 390 l 324 232 l 618 232 l 618 0 l 85 0 l 85 972 l 607 972 l 607 751 l 324 751 "},"Ē":{"ha":674,"x_min":0,"x_max":0,"o":"m 547 1060 l 146 1060 l 146 1247 l 547 1247 m 324 613 l 582 613 l 582 390 l 324 390 l 324 232 l 618 232 l 618 0 l 85 0 l 85 972 l 607 972 l 607 751 l 324 751 "},"Ę":{"ha":675,"x_min":0,"x_max":0,"o":"m 322 613 l 583 613 l 583 390 l 322 390 l 322 232 l 619 232 l 619 0 l 519 0 b 468 -93 494 -22 476 -56 b 550 -174 453 -162 510 -185 b 625 -131 576 -167 610 -146 l 657 -278 b 494 -340 613 -312 556 -337 b 297 -210 406 -344 321 -312 b 371 0 278 -125 322 -53 l 83 0 l 83 972 l 608 972 l 608 751 l 322 751 "},"F":{"ha":647,"x_min":0,"x_max":0,"o":"m 325 0 l 85 0 l 85 972 l 607 972 l 607 751 l 325 751 l 325 536 l 571 536 l 571 314 l 325 314 "},"G":{"ha":899,"x_min":0,"x_max":0,"o":"m 43 485 b 471 986 43 786 225 986 b 851 651 635 986 810 890 l 618 651 b 471 758 593 729 542 758 b 286 486 350 758 286 650 b 471 219 286 326 360 219 b 618 338 538 219 594 244 l 471 338 l 471 551 l 861 551 b 471 -12 883 243 772 -12 b 43 485 214 -12 43 186 "},"Ğ":{"ha":899,"x_min":0,"x_max":0,"o":"m 392 1297 b 463 1226 396 1256 424 1228 b 533 1297 501 1226 529 1254 l 718 1297 b 460 1047 718 1147 615 1047 b 204 1297 311 1047 208 1147 m 43 485 b 471 986 43 786 225 986 b 851 651 635 986 810 890 l 618 651 b 471 758 593 729 542 758 b 286 486 350 758 286 650 b 471 219 286 326 360 219 b 618 338 538 219 594 244 l 471 338 l 471 551 l 861 551 b 471 -12 883 243 772 -12 b 43 485 214 -12 43 186 "},"Ĝ":{"ha":899,"x_min":0,"x_max":0,"o":"m 399 1053 l 181 1053 l 181 1075 l 353 1292 l 578 1292 l 749 1075 l 749 1053 l 533 1053 l 464 1151 m 43 485 b 471 986 43 786 225 986 b 851 651 635 986 810 890 l 618 651 b 471 758 593 729 542 758 b 286 486 350 758 286 650 b 471 219 286 326 360 219 b 618 338 538 219 594 244 l 471 338 l 471 551 l 861 551 b 471 -12 883 243 772 -12 b 43 485 214 -12 43 186 "},"Ģ":{"ha":899,"x_min":0,"x_max":0,"o":"m 43 485 b 471 986 43 786 225 986 b 851 651 635 986 810 890 l 618 651 b 471 758 593 729 542 758 b 286 486 350 758 286 650 b 471 219 286 326 360 219 b 618 338 538 219 594 244 l 471 338 l 471 551 l 861 551 b 471 -12 883 243 772 -12 b 43 485 214 -12 43 186 m 561 -175 b 554 -217 561 -193 558 -201 l 513 -367 l 406 -367 l 426 -281 b 350 -175 385 -267 350 -229 b 456 -65 350 -108 394 -65 b 561 -175 519 -65 561 -110 "},"Ġ":{"ha":899,"x_min":0,"x_max":0,"o":"m 468 1050 b 340 1168 404 1050 340 1092 b 468 1288 340 1239 403 1288 b 596 1168 543 1288 596 1239 b 468 1050 596 1093 543 1050 m 43 485 b 471 986 43 786 225 986 b 851 651 635 986 810 890 l 618 651 b 471 758 593 729 542 758 b 286 486 350 758 286 650 b 471 219 286 326 360 219 b 618 338 538 219 594 244 l 471 338 l 471 551 l 861 551 b 471 -12 883 243 772 -12 b 43 485 214 -12 43 186 "},"H":{"ha":869,"x_min":0,"x_max":0,"o":"m 325 389 l 325 0 l 85 0 l 85 972 l 325 972 l 325 621 l 544 621 l 544 972 l 785 972 l 785 0 l 544 0 l 544 389 "},"Ħ":{"ha":882,"x_min":0,"x_max":0,"o":"m 90 972 l 332 972 l 332 849 l 551 849 l 551 972 l 790 972 l 790 849 l 865 849 l 865 708 l 790 708 l 790 0 l 551 0 l 551 367 l 332 367 l 332 0 l 90 0 l 90 708 l 19 708 l 19 849 l 90 849 m 332 708 l 332 599 l 551 599 l 551 708 "},"Ĥ":{"ha":869,"x_min":0,"x_max":0,"o":"m 364 1044 l 144 1044 l 144 1067 l 317 1283 l 542 1283 l 714 1067 l 714 1044 l 497 1044 l 429 1143 m 325 389 l 325 0 l 85 0 l 85 972 l 325 972 l 325 621 l 544 621 l 544 972 l 785 972 l 785 0 l 544 0 l 544 389 "},"I":{"ha":544,"x_min":0,"x_max":0,"o":"m 54 0 l 54 206 l 151 206 l 151 767 l 64 767 l 64 972 l 481 972 l 481 767 l 392 767 l 392 206 l 490 206 l 490 0 "},"Ĳ":{"ha":1282,"x_min":0,"x_max":0,"o":"m 54 0 l 54 206 l 151 206 l 151 767 l 64 767 l 64 972 l 481 972 l 481 767 l 392 767 l 392 206 l 490 206 l 490 0 m 1204 321 b 883 -14 1204 108 1053 -14 b 568 321 711 -14 568 108 l 568 447 l 792 447 l 792 325 b 882 211 792 247 832 211 b 964 325 929 211 964 247 l 964 757 l 846 757 l 846 972 l 1204 972 "},"Í":{"ha":544,"x_min":0,"x_max":0,"o":"m 261 1319 l 468 1242 l 468 1221 l 339 1046 l 158 1046 l 158 1068 m 54 0 l 54 206 l 151 206 l 151 767 l 64 767 l 64 972 l 481 972 l 481 767 l 392 767 l 392 206 l 490 206 l 490 0 "},"Ĭ":{"ha":543,"x_min":0,"x_max":0,"o":"m 208 1310 b 300 1239 211 1256 263 1232 b 350 1310 328 1244 346 1267 l 532 1310 b 279 1049 532 1142 414 1049 b 25 1310 154 1049 25 1140 m 54 0 l 54 206 l 151 206 l 151 767 l 64 767 l 64 972 l 481 972 l 481 767 l 392 767 l 392 206 l 489 206 l 489 0 "},"Î":{"ha":544,"x_min":0,"x_max":0,"o":"m 208 1053 l 0 1053 l 0 1074 l 164 1285 l 379 1285 l 543 1074 l 543 1053 l 338 1053 l 271 1149 m 54 0 l 54 206 l 153 206 l 153 767 l 64 767 l 64 972 l 481 972 l 481 767 l 392 767 l 392 206 l 490 206 l 490 0 "},"Ï":{"ha":544,"x_min":0,"x_max":0,"o":"m 111 1046 b -11 1164 50 1046 -11 1086 b 111 1283 -11 1239 42 1283 b 232 1164 174 1283 232 1240 b 111 1046 232 1092 176 1046 m 436 1046 b 314 1164 378 1046 314 1086 b 436 1283 314 1239 371 1283 b 557 1164 500 1283 557 1239 b 436 1046 557 1092 503 1046 m 54 0 l 54 206 l 153 206 l 153 767 l 64 767 l 64 972 l 481 972 l 481 767 l 393 767 l 393 206 l 490 206 l 490 0 "},"İ":{"ha":544,"x_min":0,"x_max":0,"o":"m 276 1046 b 136 1174 201 1046 136 1093 b 276 1303 136 1253 200 1303 b 415 1174 353 1303 415 1253 b 276 1046 415 1093 357 1046 m 54 0 l 54 206 l 151 206 l 151 767 l 64 767 l 64 972 l 481 972 l 481 767 l 392 767 l 392 206 l 490 206 l 490 0 "},"Ì":{"ha":544,"x_min":0,"x_max":0,"o":"m 82 1218 l 82 1239 l 288 1317 l 390 1065 l 390 1043 l 210 1043 m 54 0 l 54 206 l 151 206 l 151 767 l 64 767 l 64 972 l 481 972 l 481 767 l 392 767 l 392 206 l 490 206 l 490 0 "},"Ī":{"ha":544,"x_min":0,"x_max":0,"o":"m 474 1065 l 72 1065 l 72 1253 l 474 1253 m 54 0 l 54 206 l 151 206 l 151 767 l 64 767 l 64 972 l 481 972 l 481 767 l 392 767 l 392 206 l 490 206 l 490 0 "},"Į":{"ha":544,"x_min":0,"x_max":0,"o":"m 354 0 b 300 -110 321 -26 297 -68 b 381 -174 303 -160 340 -187 b 457 -131 404 -168 439 -146 l 489 -278 b 307 -336 442 -317 371 -339 b 135 -210 240 -333 156 -306 b 206 0 118 -132 144 -60 l 54 0 l 54 206 l 151 206 l 151 767 l 64 767 l 64 972 l 481 972 l 481 767 l 392 767 l 392 206 l 490 206 l 490 0 "},"Ĩ":{"ha":544,"x_min":0,"x_max":0,"o":"m 7 1108 b 164 1279 24 1210 86 1279 b 400 1268 271 1279 376 1135 l 536 1217 b 379 1044 524 1121 479 1044 b 135 1049 288 1044 179 1181 m 54 0 l 54 206 l 153 206 l 153 767 l 64 767 l 64 972 l 481 972 l 481 767 l 393 767 l 393 206 l 490 206 l 490 0 "},"J":{"ha":738,"x_min":0,"x_max":0,"o":"m 660 321 b 339 -14 660 108 508 -14 b 24 321 167 -14 24 108 l 24 447 l 247 447 l 247 325 b 338 211 247 247 288 211 b 419 325 385 211 419 247 l 419 757 l 301 757 l 301 972 l 660 972 "},"Ĵ":{"ha":738,"x_min":0,"x_max":0,"o":"m 397 1053 l 192 1053 l 192 1075 l 354 1294 l 565 1294 l 728 1075 l 728 1053 l 525 1053 l 460 1153 m 660 321 b 339 -14 660 119 531 -14 b 24 321 190 -14 24 90 l 24 447 l 247 447 l 247 325 b 338 211 247 246 288 211 b 419 325 385 211 419 247 l 419 754 l 314 754 l 314 972 l 660 972 "},"K":{"ha":864,"x_min":0,"x_max":0,"o":"m 324 592 b 431 607 349 592 403 589 b 500 804 465 629 476 688 b 808 971 524 922 608 1018 l 808 800 b 719 731 765 804 732 790 b 621 472 693 614 664 532 b 846 38 696 328 768 182 l 846 0 l 574 0 l 410 375 b 324 371 390 371 350 371 l 324 0 l 83 0 l 83 972 l 324 972 "},"Ķ":{"ha":863,"x_min":0,"x_max":0,"o":"m 365 592 b 501 804 442 592 463 603 b 697 982 519 897 575 972 b 808 971 731 985 768 982 l 808 800 b 699 675 722 806 728 778 b 621 472 674 589 651 521 b 846 38 696 328 768 182 l 846 0 l 574 0 l 410 375 b 324 371 389 371 353 371 l 324 0 l 83 0 l 83 972 l 324 972 l 324 592 m 561 -172 b 554 -215 561 -190 558 -200 l 501 -386 l 390 -386 l 421 -282 b 342 -172 378 -268 342 -226 b 451 -58 342 -104 390 -58 b 561 -172 514 -58 561 -101 "},"L":{"ha":611,"x_min":0,"x_max":0,"o":"m 594 0 l 85 0 l 85 972 l 325 972 l 325 228 l 594 228 "},"Ĺ":{"ha":611,"x_min":0,"x_max":0,"o":"m 207 1318 l 414 1240 l 414 1219 l 286 1044 l 106 1044 l 106 1067 m 594 0 l 85 0 l 85 972 l 325 972 l 325 228 l 594 228 "},"Ľ":{"ha":636,"x_min":0,"x_max":0,"o":"m 614 807 b 603 772 608 796 606 783 l 563 617 l 438 617 l 469 738 b 382 854 417 750 382 794 b 506 976 382 928 432 976 b 628 854 575 976 633 928 b 614 807 628 833 622 824 m 593 0 l 83 0 l 83 972 l 324 972 l 324 228 l 593 228 "},"Ļ":{"ha":611,"x_min":0,"x_max":0,"o":"m 594 0 l 85 0 l 85 972 l 325 972 l 325 228 l 594 228 m 450 -172 b 443 -215 450 -190 447 -200 l 390 -386 l 279 -386 l 310 -282 b 231 -172 267 -268 231 -226 b 340 -58 231 -104 279 -58 b 450 -172 403 -58 450 -101 "},"Ŀ":{"ha":653,"x_min":0,"x_max":0,"o":"m 594 0 l 85 0 l 85 972 l 325 972 l 325 228 l 594 228 m 499 399 b 378 526 432 399 378 449 b 499 654 378 604 432 654 b 618 526 568 654 618 604 b 499 399 618 449 568 399 "},"Ł":{"ha":624,"x_min":0,"x_max":0,"o":"m 468 478 l 338 433 l 338 228 l 619 228 l 619 0 l 97 0 l 97 364 l 13 335 l 13 510 l 97 539 l 97 972 l 338 972 l 338 608 l 468 653 "},"M":{"ha":989,"x_min":0,"x_max":0,"o":"m 904 0 l 664 0 l 664 440 l 507 232 l 481 232 l 325 440 l 325 0 l 85 0 l 85 978 l 169 978 l 494 557 l 819 978 l 904 978 "},"N":{"ha":892,"x_min":0,"x_max":0,"o":"m 83 0 l 83 981 l 158 981 l 568 508 l 568 972 l 808 972 l 808 -7 l 739 -7 l 324 474 l 324 0 "},"Ń":{"ha":892,"x_min":0,"x_max":0,"o":"m 419 1310 l 621 1232 l 621 1211 l 496 1036 l 321 1036 l 321 1058 m 83 0 l 83 981 l 158 981 l 568 508 l 568 972 l 808 972 l 808 -7 l 739 -7 l 324 474 l 324 0 "},"Ň":{"ha":892,"x_min":0,"x_max":0,"o":"m 506 1272 l 718 1272 l 718 1251 l 540 1039 l 335 1039 l 161 1251 l 161 1272 l 371 1272 l 439 1176 m 83 0 l 83 981 l 158 981 l 568 508 l 568 972 l 808 972 l 808 -7 l 739 -7 l 324 474 l 324 0 "},"Ņ":{"ha":892,"x_min":0,"x_max":0,"o":"m 83 0 l 83 981 l 158 981 l 568 508 l 568 972 l 808 972 l 808 -7 l 739 -7 l 324 474 l 324 0 m 617 -157 b 610 -200 617 -175 614 -185 l 557 -371 l 446 -371 l 476 -267 b 399 -157 436 -254 399 -211 b 508 -43 399 -89 446 -43 b 617 -157 569 -43 617 -86 "},"Ŋ":{"ha":892,"x_min":0,"x_max":0,"o":"m 521 -96 b 611 4 590 -103 611 -89 l 611 129 l 324 472 l 324 0 l 83 0 l 83 976 l 158 976 l 568 497 l 568 972 l 808 972 l 808 1 b 688 -268 808 -158 763 -247 b 514 -265 640 -281 582 -278 "},"Ñ":{"ha":892,"x_min":0,"x_max":0,"o":"m 172 1099 b 329 1269 189 1200 251 1269 b 565 1258 436 1269 542 1125 l 701 1207 b 544 1035 689 1111 644 1035 b 300 1039 453 1035 344 1171 m 83 0 l 83 981 l 158 981 l 568 508 l 568 972 l 808 972 l 808 -7 l 739 -7 l 324 474 l 324 0 "},"O":{"ha":936,"x_min":0,"x_max":0,"o":"m 893 486 b 469 -14 893 186 724 -14 b 43 486 214 -14 43 186 b 469 986 43 786 214 986 b 893 486 724 986 893 786 m 282 486 b 469 224 282 331 357 224 b 651 486 579 224 651 331 b 469 747 651 642 579 747 b 282 486 357 747 282 642 "},"Ó":{"ha":936,"x_min":0,"x_max":0,"o":"m 458 1324 l 657 1246 l 657 1225 l 535 1050 l 363 1050 l 363 1072 m 893 486 b 469 -14 893 186 724 -14 b 43 486 214 -14 43 186 b 469 986 43 786 214 986 b 893 486 724 986 893 786 m 282 486 b 469 224 282 331 357 224 b 651 486 579 224 651 331 b 469 747 651 642 579 747 b 282 486 357 747 282 642 "},"Ŏ":{"ha":936,"x_min":0,"x_max":0,"o":"m 393 1303 b 464 1232 397 1261 425 1233 b 535 1303 503 1232 531 1260 l 719 1303 b 461 1053 719 1153 617 1053 b 206 1303 313 1053 210 1153 m 893 486 b 469 -14 893 186 724 -14 b 43 486 214 -14 43 186 b 469 986 43 786 214 986 b 893 486 724 986 893 786 m 282 486 b 469 224 282 331 357 224 b 651 486 579 224 651 331 b 469 747 651 642 579 747 b 282 486 357 747 282 642 "},"Ô":{"ha":936,"x_min":0,"x_max":0,"o":"m 407 1046 l 189 1046 l 189 1068 l 361 1285 l 586 1285 l 757 1068 l 757 1046 l 542 1046 l 472 1144 m 893 486 b 469 -14 893 186 724 -14 b 43 486 214 -14 43 186 b 469 986 43 786 214 986 b 893 486 724 986 893 786 m 282 486 b 469 224 282 331 357 224 b 651 486 579 224 651 331 b 469 747 651 642 579 747 b 282 486 357 747 282 642 "},"Ö":{"ha":936,"x_min":0,"x_max":0,"o":"m 301 1043 b 179 1161 242 1043 179 1083 b 301 1281 179 1236 233 1281 b 424 1161 365 1281 424 1238 b 301 1043 424 1089 368 1043 m 628 1043 b 506 1161 568 1043 506 1083 b 628 1281 506 1236 563 1281 b 747 1161 692 1281 747 1236 b 628 1043 747 1089 693 1043 m 893 486 b 469 -14 893 186 724 -14 b 43 486 214 -14 43 186 b 469 986 43 786 214 986 b 893 486 724 986 893 786 m 282 486 b 469 224 282 331 357 224 b 651 486 579 224 651 331 b 469 747 651 642 579 747 b 282 486 357 747 282 642 "},"Ò":{"ha":936,"x_min":0,"x_max":0,"o":"m 282 1228 l 282 1249 l 481 1326 l 578 1075 l 578 1053 l 404 1053 m 893 486 b 469 -14 893 186 724 -14 b 43 486 214 -14 43 186 b 469 986 43 786 214 986 b 893 486 724 986 893 786 m 282 486 b 469 224 282 331 357 224 b 651 486 579 224 651 331 b 469 747 651 642 579 747 b 282 486 357 747 282 642 "},"Ő":{"ha":936,"x_min":0,"x_max":0,"o":"m 538 1268 l 538 1257 l 414 1050 l 240 1050 l 240 1058 l 339 1314 m 821 1239 l 821 1229 l 696 1050 l 524 1050 l 524 1058 l 624 1294 m 893 486 b 469 -14 893 186 724 -14 b 43 486 214 -14 43 186 b 469 986 43 786 214 986 b 893 486 724 986 893 786 m 282 486 b 469 224 282 331 357 224 b 651 486 579 224 651 331 b 469 747 651 642 579 747 b 282 486 357 747 282 642 "},"Ō":{"ha":936,"x_min":0,"x_max":0,"o":"m 665 1072 l 265 1072 l 265 1246 l 665 1246 m 893 486 b 469 -14 893 186 724 -14 b 43 486 214 -14 43 186 b 469 986 43 786 214 986 b 893 486 724 986 893 786 m 282 486 b 469 224 282 331 357 224 b 651 486 579 224 651 331 b 469 747 651 642 579 747 b 282 486 357 747 282 642 "},"Ø":{"ha":933,"x_min":0,"x_max":0,"o":"m 778 853 b 890 486 850 769 890 643 b 468 -17 890 164 700 -17 b 346 6 428 -17 383 -11 l 299 -89 l 210 -89 b 76 -89 165 -89 121 -90 l 76 -62 l 168 111 b 44 486 88 196 44 321 b 469 989 44 818 256 989 b 604 963 517 989 563 983 l 650 1056 l 874 1056 l 874 1032 m 493 744 b 468 749 485 747 478 749 b 285 486 371 749 285 647 b 304 328 285 421 290 372 m 457 226 b 490 224 469 225 476 224 b 533 228 504 224 519 225 b 650 486 608 247 650 351 b 639 632 650 542 646 589 "},"Ǿ":{"ha":933,"x_min":0,"x_max":0,"o":"m 469 1344 l 675 1267 l 675 1246 l 547 1071 l 367 1071 l 367 1093 m 778 853 b 890 486 850 767 890 649 b 468 -17 890 156 685 -17 b 346 6 428 -17 383 -11 l 299 -89 l 188 -89 b 76 -89 150 -89 113 -90 l 76 -62 l 168 111 b 44 486 90 194 44 322 b 469 989 44 821 257 989 b 604 963 517 989 560 982 l 650 1056 l 874 1056 l 874 1032 m 493 744 b 468 749 485 747 478 749 b 285 486 369 749 285 643 b 304 328 285 421 294 365 m 457 226 b 490 224 469 225 476 224 b 526 228 503 224 515 225 b 650 486 631 253 650 354 b 639 632 650 546 646 590 "},"Õ":{"ha":936,"x_min":0,"x_max":0,"o":"m 203 1114 b 360 1285 219 1215 282 1285 b 596 1274 467 1285 572 1140 l 732 1222 b 575 1050 719 1126 675 1050 b 331 1054 483 1050 375 1186 m 893 486 b 469 -14 893 186 724 -14 b 43 486 214 -14 43 186 b 469 986 43 786 214 986 b 893 486 724 986 893 786 m 282 486 b 469 224 282 331 357 224 b 651 486 579 224 651 331 b 469 747 651 642 579 747 b 282 486 357 747 282 642 "},"Œ":{"ha":1090,"x_min":0,"x_max":0,"o":"m 568 0 b 454 -15 532 -11 493 -15 b 43 483 207 -15 43 185 b 467 985 43 789 213 989 b 572 969 503 985 542 979 l 1025 969 l 1025 763 l 743 763 l 743 610 l 997 610 l 997 414 l 743 414 l 743 206 l 1035 206 l 1035 0 m 276 483 b 475 194 276 310 356 194 b 542 208 500 194 518 197 l 542 747 b 472 764 521 758 494 764 b 276 483 354 764 276 651 "},"P":{"ha":781,"x_min":0,"x_max":0,"o":"m 429 972 b 754 608 631 972 761 826 b 429 258 754 394 624 258 l 325 258 l 325 1 l 85 1 l 85 972 m 429 474 b 525 615 486 474 525 531 b 429 753 525 697 486 753 l 321 753 l 321 474 "},"Þ":{"ha":779,"x_min":0,"x_max":0,"o":"m 325 856 l 438 856 b 754 490 628 856 754 710 b 438 135 754 276 628 135 l 325 135 l 325 0 l 85 0 l 85 972 l 325 972 m 419 356 b 525 497 483 356 525 413 b 419 635 525 579 483 635 l 321 635 l 321 356 "},"Q":{"ha":944,"x_min":0,"x_max":0,"o":"m 719 -11 l 690 47 b 469 -14 628 8 553 -14 b 43 486 214 -14 43 186 b 469 986 43 786 214 986 b 893 486 724 986 893 786 b 831 206 893 378 871 283 l 942 -3 l 942 -11 m 469 224 b 651 486 579 224 651 331 b 469 747 651 642 579 747 b 282 486 357 747 282 642 b 469 224 282 331 357 224 "},"R":{"ha":828,"x_min":0,"x_max":0,"o":"m 542 1 l 417 306 l 325 306 l 325 1 l 85 1 l 85 972 l 428 972 b 756 629 625 972 756 835 b 639 367 754 518 725 431 l 804 14 l 804 1 m 426 513 b 524 635 485 513 524 561 b 426 753 524 706 485 753 l 321 753 l 321 513 "},"Ŕ":{"ha":828,"x_min":0,"x_max":0,"o":"m 369 1313 l 565 1235 l 565 1214 l 446 1039 l 275 1039 l 275 1061 m 542 1 l 417 306 l 325 306 l 325 1 l 85 1 l 85 972 l 428 972 b 756 629 625 972 756 835 b 639 367 754 518 725 431 l 804 14 l 804 1 m 426 513 b 524 635 485 513 524 561 b 426 753 524 706 485 753 l 321 753 l 321 513 "},"Ř":{"ha":828,"x_min":0,"x_max":0,"o":"m 444 1274 l 653 1274 l 653 1251 l 488 1043 l 272 1043 l 107 1251 l 107 1274 l 313 1274 l 381 1178 m 542 1 l 417 306 l 325 306 l 325 1 l 85 1 l 85 972 l 428 972 b 756 629 625 972 756 835 b 639 367 754 518 725 431 l 804 14 l 804 1 m 426 513 b 524 635 485 513 524 561 b 426 753 524 706 485 753 l 321 753 l 321 513 "},"Ŗ":{"ha":828,"x_min":0,"x_max":0,"o":"m 542 1 l 417 306 l 325 306 l 325 1 l 85 1 l 85 972 l 428 972 b 756 629 625 972 756 835 b 639 367 754 518 725 431 l 804 14 l 804 1 m 426 513 b 524 635 485 513 524 561 b 426 753 524 706 485 753 l 321 753 l 321 513 m 540 -158 b 535 -201 540 -176 539 -186 l 482 -372 l 371 -372 l 400 -268 b 322 -158 357 -254 322 -212 b 432 -44 322 -90 369 -44 b 540 -158 493 -44 540 -87 "},"S":{"ha":768,"x_min":0,"x_max":0,"o":"m 274 307 b 383 206 272 247 317 206 b 490 293 447 206 490 238 b 356 382 490 372 404 378 b 53 678 204 393 53 475 b 378 986 53 868 183 986 b 697 668 575 986 703 858 l 472 668 b 382 768 476 726 439 768 b 289 679 325 768 289 735 b 396 596 289 636 321 606 b 728 290 572 578 728 526 b 386 -14 728 104 592 -14 b 46 307 176 -14 40 114 "},"Ś":{"ha":768,"x_min":0,"x_max":0,"o":"m 371 1325 l 571 1247 l 571 1226 l 447 1051 l 274 1051 l 274 1074 m 274 307 b 383 206 272 247 317 206 b 490 293 447 206 490 238 b 356 382 490 372 404 378 b 53 678 204 393 53 475 b 378 986 53 868 183 986 b 697 668 575 986 703 858 l 472 668 b 382 768 476 726 439 768 b 289 679 325 768 289 735 b 396 596 289 636 321 606 b 728 290 572 578 728 526 b 386 -14 728 104 592 -14 b 46 307 176 -14 40 114 "},"Š":{"ha":768,"x_min":0,"x_max":0,"o":"m 451 1272 l 660 1272 l 660 1250 l 493 1042 l 278 1042 l 114 1250 l 114 1272 l 319 1272 l 386 1176 m 274 307 b 383 206 272 247 317 206 b 490 293 447 206 490 238 b 356 382 490 372 404 378 b 53 678 204 393 53 475 b 378 986 53 868 183 986 b 697 668 575 986 703 858 l 472 668 b 382 768 476 726 439 768 b 289 679 325 768 289 735 b 396 596 289 636 321 606 b 728 290 572 578 728 526 b 386 -14 728 104 592 -14 b 46 307 176 -14 40 114 "},"Ş":{"ha":768,"x_min":0,"x_max":0,"o":"m 728 290 b 481 -4 728 135 632 26 l 464 -81 b 549 -190 522 -93 549 -133 b 425 -346 549 -279 503 -335 b 233 -306 363 -356 285 -339 l 247 -178 b 306 -200 264 -189 286 -200 b 353 -175 326 -200 349 -194 b 289 -119 363 -135 307 -119 l 314 -8 b 46 307 146 18 40 138 l 274 307 b 383 206 272 247 317 206 b 490 293 447 206 490 238 b 356 382 490 372 404 378 b 53 678 204 393 53 475 b 378 986 53 868 183 986 b 697 668 575 986 703 858 l 472 668 b 382 768 476 726 439 768 b 289 679 325 768 289 735 b 396 596 289 636 321 606 b 728 290 572 578 728 526 "},"Ŝ":{"ha":768,"x_min":0,"x_max":0,"o":"m 307 1050 l 94 1050 l 94 1072 l 267 1289 l 492 1289 l 663 1072 l 663 1050 l 453 1050 l 378 1149 m 274 307 b 383 206 272 247 317 206 b 490 293 447 206 490 238 b 356 382 490 372 404 378 b 53 678 204 393 53 475 b 378 986 53 868 183 986 b 697 668 575 986 703 858 l 472 668 b 382 768 476 726 439 768 b 289 679 325 768 289 735 b 396 596 289 636 321 606 b 728 290 572 578 728 526 b 386 -14 728 104 592 -14 b 46 307 176 -14 40 114 "},"Ș":{"ha":768,"x_min":0,"x_max":0,"o":"m 274 307 b 383 206 272 247 317 206 b 490 293 447 206 490 238 b 356 382 490 372 404 378 b 53 678 204 393 53 475 b 378 986 53 868 183 986 b 697 668 575 986 703 858 l 472 668 b 382 768 476 726 439 768 b 289 679 325 768 289 735 b 396 596 289 636 321 606 b 728 290 572 578 728 526 b 386 -14 728 104 592 -14 b 46 307 176 -14 40 114 m 499 -162 b 485 -232 499 -181 496 -203 l 440 -364 l 335 -364 l 364 -262 b 288 -162 322 -250 288 -215 b 407 -57 288 -89 350 -56 b 499 -162 458 -60 499 -99 "},"T":{"ha":657,"x_min":0,"x_max":0,"o":"m 636 972 l 636 750 l 446 750 l 446 0 l 213 0 l 213 750 l 21 750 l 21 972 "},"Ŧ":{"ha":656,"x_min":0,"x_max":0,"o":"m 213 750 l 18 750 l 18 972 l 639 972 l 639 750 l 444 750 l 444 517 l 544 517 l 544 357 l 444 357 l 444 0 l 213 0 l 213 357 l 107 357 l 107 517 l 213 517 "},"Ť":{"ha":657,"x_min":0,"x_max":0,"o":"m 399 1268 l 615 1268 l 615 1246 l 443 1029 l 218 1029 l 47 1246 l 47 1268 l 261 1268 l 331 1169 m 636 972 l 636 750 l 446 750 l 446 0 l 213 0 l 213 750 l 21 750 l 21 972 "},"Ţ":{"ha":663,"x_min":0,"x_max":0,"o":"m 642 972 l 642 750 l 447 750 l 447 0 l 215 0 l 215 750 l 21 750 l 21 972 m 272 -361 l 296 -265 b 211 -164 247 -265 211 -219 b 335 -49 211 -92 265 -49 b 456 -161 394 -49 456 -87 b 401 -361 456 -181 446 -240 "},"U":{"ha":835,"x_min":0,"x_max":0,"o":"m 418 -12 b 78 326 214 -12 78 124 l 78 972 l 318 972 l 318 332 b 419 211 318 260 358 211 b 518 332 479 211 518 260 l 518 972 l 757 972 l 757 326 b 418 -12 757 124 621 -12 "},"Ú":{"ha":835,"x_min":0,"x_max":0,"o":"m 413 1311 l 618 1233 l 618 1213 l 490 1038 l 310 1038 l 310 1060 m 418 -12 b 78 326 214 -12 78 124 l 78 972 l 318 972 l 318 332 b 419 211 318 260 358 211 b 518 332 479 211 518 260 l 518 972 l 757 972 l 757 326 b 418 -12 757 124 621 -12 "},"Ŭ":{"ha":835,"x_min":0,"x_max":0,"o":"m 347 1285 b 418 1214 351 1243 379 1215 b 489 1285 457 1214 485 1242 l 674 1285 b 415 1035 674 1135 571 1035 b 160 1285 267 1035 164 1135 m 418 -12 b 78 326 214 -12 78 124 l 78 972 l 318 972 l 318 332 b 419 211 318 260 358 211 b 518 332 479 211 518 260 l 518 972 l 757 972 l 757 326 b 418 -12 757 124 621 -12 "},"Û":{"ha":835,"x_min":0,"x_max":0,"o":"m 353 1053 l 135 1053 l 135 1075 l 307 1286 l 532 1286 l 703 1075 l 703 1053 l 488 1053 l 418 1146 m 418 -12 b 78 326 214 -12 78 124 l 78 972 l 318 972 l 318 332 b 419 211 318 260 358 211 b 518 332 479 211 518 260 l 518 972 l 757 972 l 757 326 b 418 -12 757 124 621 -12 "},"Ü":{"ha":835,"x_min":0,"x_max":0,"o":"m 256 1063 b 135 1181 196 1063 135 1103 b 256 1300 135 1256 188 1300 b 378 1181 319 1300 378 1257 b 256 1063 378 1108 322 1063 m 582 1063 b 460 1181 522 1063 460 1103 b 582 1300 460 1256 517 1300 b 701 1181 646 1300 701 1256 b 582 1063 701 1108 647 1063 m 418 -12 b 78 326 214 -12 78 124 l 78 972 l 318 972 l 318 332 b 419 211 318 260 358 211 b 518 332 479 211 518 260 l 518 972 l 757 972 l 757 326 b 418 -12 757 124 621 -12 "},"Ù":{"ha":835,"x_min":0,"x_max":0,"o":"m 207 1217 l 207 1238 l 414 1315 l 517 1064 l 517 1042 l 336 1042 m 418 -12 b 78 326 214 -12 78 124 l 78 972 l 318 972 l 318 332 b 419 211 318 260 358 211 b 518 332 479 211 518 260 l 518 972 l 757 972 l 757 326 b 418 -12 757 124 621 -12 "},"Ű":{"ha":835,"x_min":0,"x_max":0,"o":"m 457 1263 l 457 1243 l 346 1057 l 172 1057 l 172 1078 l 258 1308 m 740 1233 l 740 1213 l 629 1057 l 456 1057 l 456 1078 l 542 1289 m 418 -12 b 78 326 214 -12 78 124 l 78 972 l 318 972 l 318 332 b 419 211 318 260 358 211 b 518 332 479 211 518 260 l 518 972 l 757 972 l 757 326 b 418 -12 757 124 621 -12 "},"Ū":{"ha":835,"x_min":0,"x_max":0,"o":"m 615 1079 l 214 1079 l 214 1253 l 615 1253 m 418 -12 b 78 326 214 -12 78 124 l 78 972 l 318 972 l 318 332 b 419 211 318 260 358 211 b 518 332 479 211 518 260 l 518 972 l 757 972 l 757 326 b 418 -12 757 124 621 -12 "},"Ų":{"ha":835,"x_min":0,"x_max":0,"o":"m 579 22 b 526 -87 547 -4 524 -46 b 607 -149 529 -137 565 -158 b 683 -108 631 -143 665 -124 l 715 -256 b 533 -314 668 -294 597 -317 b 358 -183 467 -311 378 -279 b 408 -12 346 -121 367 -64 b 78 326 210 -8 78 126 l 78 972 l 318 972 l 318 332 b 419 211 318 260 358 211 b 518 332 479 211 518 260 l 518 972 l 757 972 l 757 326 b 579 22 757 183 690 75 "},"Ů":{"ha":835,"x_min":0,"x_max":0,"o":"m 421 1021 b 244 1192 315 1021 244 1089 b 419 1367 244 1297 314 1367 b 590 1192 522 1367 590 1297 b 421 1021 590 1089 522 1021 m 365 1192 b 419 1139 365 1160 388 1139 b 469 1192 450 1139 469 1160 b 419 1246 469 1225 450 1246 b 365 1192 388 1246 365 1225 m 418 -12 b 78 326 214 -12 78 124 l 78 972 l 318 972 l 318 332 b 419 211 318 260 358 211 b 518 332 479 211 518 260 l 518 972 l 757 972 l 757 326 b 418 -12 757 124 621 -12 "},"Ũ":{"ha":835,"x_min":0,"x_max":0,"o":"m 160 1114 b 317 1285 176 1215 239 1285 b 553 1274 424 1285 529 1140 l 689 1222 b 532 1050 676 1126 632 1050 b 288 1054 440 1050 332 1186 m 418 -12 b 78 326 214 -12 78 124 l 78 972 l 318 972 l 318 332 b 419 211 318 260 358 211 b 518 332 479 211 518 260 l 518 972 l 757 972 l 757 326 b 418 -12 757 124 621 -12 "},"V":{"ha":822,"x_min":0,"x_max":0,"o":"m 415 425 b 471 683 428 513 447 599 l 565 972 l 826 972 l 826 961 l 463 -14 l 363 -14 l -6 961 l -6 972 l 257 972 l 356 683 b 411 425 379 597 400 511 "},"W":{"ha":1206,"x_min":0,"x_max":0,"o":"m 822 424 b 874 707 835 525 854 618 l 949 972 l 1199 972 l 1199 963 l 917 -10 l 754 -10 l 606 435 l 601 435 l 460 -10 l 290 -10 l 8 961 l 8 972 l 258 972 l 335 707 b 390 424 357 617 378 524 l 393 424 l 533 956 l 689 956 l 819 424 "},"Ẃ":{"ha":1206,"x_min":0,"x_max":0,"o":"m 600 1315 l 806 1238 l 806 1217 l 678 1042 l 497 1042 l 497 1064 m 822 424 b 874 707 835 525 854 618 l 949 972 l 1199 972 l 1199 963 l 917 -10 l 754 -10 l 606 435 l 601 435 l 460 -10 l 290 -10 l 8 961 l 8 972 l 258 972 l 335 707 b 390 424 357 617 378 524 l 393 424 l 533 956 l 689 956 l 819 424 "},"Ŵ":{"ha":1206,"x_min":0,"x_max":0,"o":"m 535 1050 l 322 1050 l 322 1072 l 496 1289 l 719 1289 l 892 1072 l 892 1050 l 682 1050 l 607 1149 m 822 424 b 874 707 835 525 854 618 l 949 972 l 1199 972 l 1199 963 l 917 -10 l 754 -10 l 606 435 l 601 435 l 460 -10 l 290 -10 l 8 961 l 8 972 l 258 972 l 335 707 b 390 424 357 617 378 524 l 393 424 l 533 956 l 689 956 l 819 424 "},"Ẅ":{"ha":1206,"x_min":0,"x_max":0,"o":"m 435 1057 b 313 1175 374 1057 313 1097 b 435 1294 313 1250 365 1294 b 556 1175 497 1294 556 1251 b 435 1057 556 1103 500 1057 m 788 1057 b 665 1175 729 1057 665 1097 b 788 1294 665 1250 722 1294 b 908 1175 851 1294 908 1250 b 788 1057 908 1103 854 1057 m 822 424 b 874 707 835 525 854 618 l 949 972 l 1199 972 l 1199 963 l 917 -10 l 754 -10 l 606 435 l 601 435 l 460 -10 l 290 -10 l 8 961 l 8 972 l 258 972 l 335 707 b 390 424 357 617 378 524 l 393 424 l 533 956 l 689 956 l 819 424 "},"Ẁ":{"ha":1206,"x_min":0,"x_max":0,"o":"m 404 1219 l 404 1240 l 611 1318 l 713 1067 l 713 1044 l 532 1044 m 822 424 b 874 707 835 525 854 618 l 949 972 l 1199 972 l 1199 963 l 917 -10 l 754 -10 l 606 435 l 601 435 l 460 -10 l 290 -10 l 8 961 l 8 972 l 258 972 l 335 707 b 390 424 357 617 378 524 l 393 424 l 533 956 l 689 956 l 819 424 "},"X":{"ha":817,"x_min":0,"x_max":0,"o":"m 408 699 b 447 813 422 740 429 776 l 526 972 l 785 972 l 785 964 l 556 515 l 817 7 l 817 0 l 542 0 l 457 181 b 410 331 439 225 422 281 l 406 331 b 354 181 392 279 374 219 l 272 0 l 0 0 l 0 7 l 261 515 l 31 964 l 31 972 l 288 972 l 367 813 b 406 699 383 778 394 738 "},"Y":{"ha":782,"x_min":0,"x_max":0,"o":"m 392 608 b 444 779 404 661 421 725 l 528 972 l 782 972 l 782 958 l 511 371 l 511 0 l 271 0 l 271 371 l -3 958 l -3 972 l 254 972 l 336 779 b 389 608 358 725 375 660 "},"Ý":{"ha":782,"x_min":0,"x_max":0,"o":"m 368 1307 l 574 1229 l 574 1208 l 446 1033 l 265 1033 l 265 1056 m 392 608 b 444 779 404 661 421 725 l 528 972 l 782 972 l 782 958 l 511 371 l 511 0 l 271 0 l 271 371 l -3 958 l -3 972 l 254 972 l 336 779 b 389 608 358 725 375 660 "},"Ŷ":{"ha":782,"x_min":0,"x_max":0,"o":"m 317 1049 l 97 1049 l 97 1071 l 271 1288 l 494 1288 l 667 1071 l 667 1049 l 450 1049 l 382 1147 m 392 608 b 444 779 404 661 421 725 l 528 972 l 782 972 l 782 958 l 511 371 l 511 0 l 271 0 l 271 371 l -3 958 l -3 972 l 254 972 l 336 779 b 389 608 358 725 375 660 "},"Ÿ":{"ha":782,"x_min":0,"x_max":0,"o":"m 225 1039 b 103 1157 164 1039 103 1079 b 225 1276 103 1232 156 1276 b 346 1157 288 1276 346 1233 b 225 1039 346 1085 290 1039 m 550 1039 b 428 1157 492 1039 428 1079 b 550 1276 428 1232 485 1276 b 669 1157 614 1276 669 1232 b 550 1039 669 1085 615 1039 m 392 608 b 444 779 404 661 421 725 l 528 972 l 782 972 l 782 958 l 511 371 l 511 0 l 271 0 l 271 371 l -3 958 l -3 972 l 254 972 l 336 779 b 389 608 358 725 375 660 "},"Ỳ":{"ha":782,"x_min":0,"x_max":0,"o":"m 179 1214 l 179 1235 l 386 1313 l 488 1061 l 488 1039 l 307 1039 m 392 608 b 444 779 404 661 421 725 l 528 972 l 782 972 l 782 958 l 511 371 l 511 0 l 271 0 l 271 371 l -3 958 l -3 972 l 254 972 l 336 779 b 389 608 358 725 375 660 "},"Z":{"ha":725,"x_min":0,"x_max":0,"o":"m 375 226 l 683 226 l 683 0 l 26 0 l 26 36 l 331 751 l 54 751 l 54 972 l 681 972 l 681 935 "},"Ź":{"ha":725,"x_min":0,"x_max":0,"o":"m 358 1318 l 565 1240 l 565 1219 l 438 1044 l 257 1044 l 257 1067 m 683 226 l 683 0 l 26 0 l 26 36 l 331 751 l 54 751 l 54 972 l 681 972 l 681 935 l 375 226 "},"Ž":{"ha":725,"x_min":0,"x_max":0,"o":"m 439 1283 l 656 1283 l 656 1261 l 483 1044 l 258 1044 l 88 1261 l 88 1283 l 301 1283 l 371 1185 m 683 226 l 683 0 l 26 0 l 26 36 l 331 751 l 54 751 l 54 972 l 681 972 l 681 935 l 375 226 "},"Ż":{"ha":725,"x_min":0,"x_max":0,"o":"m 364 1039 b 233 1165 292 1039 233 1088 b 364 1293 233 1243 289 1293 b 492 1165 436 1293 492 1246 b 364 1039 492 1089 436 1039 m 683 226 l 683 0 l 26 0 l 26 36 l 331 751 l 54 751 l 54 972 l 681 972 l 681 935 l 375 226 "},"a":{"ha":853,"x_min":0,"x_max":0,"o":"m 608 0 l 565 121 l 289 121 l 246 0 l -6 0 l -6 15 l 368 986 l 488 986 l 857 15 l 857 0 m 497 318 b 426 594 451 458 442 508 b 357 318 407 499 397 453 "},"á":{"ha":853,"x_min":0,"x_max":0,"o":"m 425 1317 l 632 1239 l 632 1218 l 504 1043 l 324 1043 l 324 1065 m 608 0 l 565 121 l 289 121 l 246 0 l -6 0 l -6 15 l 368 986 l 488 986 l 857 15 l 857 0 m 497 318 b 426 594 451 458 442 508 b 357 318 407 499 397 453 "},"ă":{"ha":853,"x_min":0,"x_max":0,"o":"m 360 1290 b 431 1219 364 1249 392 1221 b 501 1290 469 1219 497 1247 l 686 1290 b 428 1040 686 1140 583 1040 b 172 1290 279 1040 176 1140 m 608 0 l 565 121 l 289 121 l 246 0 l -6 0 l -6 15 l 368 986 l 488 986 l 857 15 l 857 0 m 497 318 b 426 594 451 458 442 508 b 357 318 407 499 397 453 "},"â":{"ha":853,"x_min":0,"x_max":0,"o":"m 360 1040 l 140 1040 l 140 1063 l 314 1279 l 538 1279 l 710 1063 l 710 1040 l 493 1040 l 425 1139 m 608 0 l 565 121 l 289 121 l 246 0 l -6 0 l -6 15 l 368 986 l 488 986 l 857 15 l 857 0 m 497 318 b 426 594 451 458 442 508 b 357 318 407 499 397 453 "},"ä":{"ha":853,"x_min":0,"x_max":0,"o":"m 274 1043 b 156 1157 215 1043 156 1082 b 274 1272 156 1229 207 1272 b 390 1157 335 1272 390 1231 b 274 1043 390 1088 338 1043 m 586 1043 b 469 1157 529 1043 469 1082 b 586 1272 469 1229 524 1272 b 701 1157 649 1272 701 1229 b 586 1043 701 1088 650 1043 m 608 0 l 565 121 l 289 121 l 246 0 l -6 0 l -6 15 l 368 986 l 488 986 l 857 15 l 857 0 m 497 318 b 426 594 451 458 442 508 b 357 318 407 499 397 453 "},"à":{"ha":853,"x_min":0,"x_max":0,"o":"m 226 1218 l 226 1239 l 432 1317 l 535 1065 l 535 1043 l 354 1043 m 608 0 l 565 121 l 289 121 l 246 0 l -6 0 l -6 15 l 368 986 l 488 986 l 857 15 l 857 0 m 497 318 b 426 594 451 458 442 508 b 357 318 407 499 397 453 "},"ā":{"ha":853,"x_min":0,"x_max":0,"o":"m 622 1043 l 221 1043 l 221 1218 l 622 1218 m 608 0 l 565 121 l 289 121 l 246 0 l -6 0 l -6 15 l 368 986 l 488 986 l 857 15 l 857 0 m 497 318 b 426 594 451 458 442 508 b 357 318 407 499 397 453 "},"ą":{"ha":853,"x_min":0,"x_max":0,"o":"m 889 -282 b 685 -342 836 -319 756 -344 b 526 -235 618 -342 546 -310 b 608 0 501 -140 538 -62 l 565 121 l 289 121 l 246 0 l -6 0 l -6 15 l 368 986 l 488 986 l 857 15 l 857 0 l 851 0 b 693 -129 739 0 682 -75 b 850 -135 706 -193 811 -174 m 469 389 b 426 572 451 442 439 507 b 385 388 413 506 400 436 l 363 324 l 493 324 "},"å":{"ha":854,"x_min":0,"x_max":0,"o":"m 610 0 l 567 121 l 290 121 l 247 0 l -4 0 l -4 15 l 350 935 b 258 1090 294 963 258 1022 b 433 1265 258 1196 328 1265 b 604 1090 536 1265 604 1196 b 510 932 604 1019 567 958 l 858 15 l 858 0 m 433 1140 b 385 1090 404 1140 385 1121 b 433 1043 385 1063 404 1043 b 479 1090 461 1043 479 1063 b 433 1140 479 1121 461 1140 m 471 389 b 428 572 453 442 440 507 b 386 388 414 506 401 436 l 364 324 l 494 324 "},"ǻ":{"ha":854,"x_min":0,"x_max":0,"o":"m 425 1432 l 624 1372 l 624 1357 l 510 1225 l 333 1225 l 333 1242 m 610 0 l 567 121 l 290 121 l 247 0 l -4 0 l -4 15 l 335 896 b 258 1043 288 926 258 982 b 433 1204 258 1136 328 1204 b 604 1043 536 1204 604 1136 b 525 892 604 978 574 922 l 858 15 l 858 0 m 385 1040 b 433 993 385 1013 404 993 b 479 1040 461 993 479 1013 b 433 1090 479 1071 461 1090 b 385 1040 404 1090 385 1071 m 471 389 b 428 572 453 442 440 507 b 386 388 414 506 401 436 l 364 324 l 494 324 "},"ã":{"ha":853,"x_min":0,"x_max":0,"o":"m 161 1100 b 318 1271 178 1201 240 1271 b 554 1260 425 1271 531 1126 l 690 1208 b 533 1036 678 1113 633 1036 b 289 1040 442 1036 333 1172 m 608 0 l 565 121 l 289 121 l 246 0 l -6 0 l -6 15 l 368 986 l 488 986 l 857 15 l 857 0 m 497 318 b 426 594 451 458 442 508 b 357 318 407 499 397 453 "},"æ":{"ha":994,"x_min":0,"x_max":0,"o":"m 1 38 l 357 969 l 929 969 l 929 749 l 671 749 l 671 610 l 900 610 l 900 400 l 671 400 l 671 219 l 938 219 l 938 0 l 468 0 l 468 213 l 296 213 l 231 0 l 1 0 m 476 756 l 475 756 l 369 419 l 468 419 "},"ǽ":{"ha":994,"x_min":0,"x_max":0,"o":"m 574 1314 l 781 1236 l 781 1215 l 651 1040 l 471 1040 l 471 1063 m 1 38 l 357 969 l 929 969 l 929 749 l 671 749 l 671 610 l 900 610 l 900 400 l 671 400 l 671 219 l 938 219 l 938 0 l 468 0 l 468 213 l 296 213 l 231 0 l 1 0 m 476 756 l 475 756 l 369 419 l 468 419 "},"b":{"ha":806,"x_min":0,"x_max":0,"o":"m 729 694 b 640 510 729 635 707 553 b 761 285 718 457 761 374 b 471 0 761 111 646 0 l 85 0 l 85 972 l 440 972 b 729 694 614 972 729 864 m 419 590 b 492 669 461 590 490 622 b 419 757 493 722 464 757 l 321 757 l 321 590 m 451 218 b 524 301 492 218 524 251 b 451 390 524 354 492 390 l 321 390 l 321 218 "},"c":{"ha":896,"x_min":0,"x_max":0,"o":"m 43 485 b 465 986 43 786 213 986 b 858 614 638 986 831 874 l 628 614 b 465 757 603 714 547 757 b 282 486 356 757 282 649 b 467 219 282 326 356 219 b 629 374 549 219 611 268 l 861 374 b 465 -12 831 97 644 -12 b 43 485 213 -12 43 186 "},"ć":{"ha":896,"x_min":0,"x_max":0,"o":"m 453 1331 l 651 1253 l 651 1232 l 529 1057 l 357 1057 l 357 1079 m 43 485 b 465 986 43 786 213 986 b 858 614 638 986 831 874 l 628 614 b 465 757 603 714 547 757 b 282 486 356 757 282 649 b 467 219 282 326 356 219 b 629 374 549 219 611 268 l 861 374 b 465 -12 831 97 644 -12 b 43 485 213 -12 43 186 "},"č":{"ha":896,"x_min":0,"x_max":0,"o":"m 531 1282 l 743 1282 l 743 1260 l 574 1047 l 354 1047 l 185 1260 l 185 1282 l 396 1282 l 464 1185 m 43 485 b 465 986 43 786 213 986 b 858 614 638 986 831 874 l 628 614 b 465 757 603 714 547 757 b 282 486 356 757 282 649 b 467 219 282 326 356 219 b 629 374 549 219 611 268 l 861 374 b 465 -12 831 97 644 -12 b 43 485 213 -12 43 186 "},"ç":{"ha":894,"x_min":0,"x_max":0,"o":"m 861 374 b 546 -6 835 139 697 24 l 532 -72 b 625 -210 600 -86 635 -149 b 290 -297 603 -356 407 -376 l 314 -169 b 433 -164 350 -193 426 -204 b 357 -101 442 -119 386 -101 l 379 -4 b 43 485 175 36 43 221 b 465 986 43 786 213 986 b 858 614 638 986 831 874 l 628 614 b 465 757 603 714 547 757 b 282 486 356 757 282 649 b 467 219 282 326 356 219 b 629 374 549 219 611 268 "},"ĉ":{"ha":896,"x_min":0,"x_max":0,"o":"m 399 1056 l 181 1056 l 181 1078 l 353 1294 l 578 1294 l 749 1078 l 749 1056 l 533 1056 l 465 1154 m 43 485 b 465 986 43 786 213 986 b 858 614 638 986 831 874 l 628 614 b 465 757 603 714 547 757 b 282 486 356 757 282 649 b 467 219 282 326 356 219 b 629 374 549 219 611 268 l 861 374 b 465 -12 831 97 644 -12 b 43 485 213 -12 43 186 "},"ċ":{"ha":896,"x_min":0,"x_max":0,"o":"m 463 1060 b 340 1181 394 1060 340 1106 b 463 1303 340 1256 393 1303 b 583 1181 532 1303 583 1258 b 463 1060 583 1107 533 1060 m 43 485 b 465 986 43 786 213 986 b 858 614 638 986 831 874 l 628 614 b 465 757 603 714 547 757 b 282 486 356 757 282 649 b 467 219 282 326 356 219 b 629 374 549 219 611 268 l 861 374 b 465 -12 831 97 644 -12 b 43 485 213 -12 43 186 "},"d":{"ha":858,"x_min":0,"x_max":0,"o":"m 406 971 b 814 490 650 971 814 779 b 406 0 817 196 654 0 l 85 0 l 85 971 m 403 229 b 572 488 504 229 572 332 b 403 743 572 640 504 743 l 325 743 l 325 229 "},"ð":{"ha":890,"x_min":0,"x_max":0,"o":"m 846 490 b 438 0 849 196 686 0 l 117 0 l 117 394 l 39 394 l 39 565 l 117 565 l 117 971 l 438 971 b 846 490 682 971 846 779 m 435 229 b 604 488 536 229 604 332 b 435 743 604 640 536 743 l 357 743 l 357 565 l 471 565 l 471 394 l 357 394 l 357 229 "},"ď":{"ha":858,"x_min":0,"x_max":0,"o":"m 449 1271 l 654 1271 l 654 1250 l 490 1043 l 278 1043 l 113 1250 l 113 1271 l 318 1271 l 385 1178 m 406 971 b 814 490 650 971 814 779 b 406 0 817 196 654 0 l 85 0 l 85 971 m 403 229 b 572 488 504 229 572 332 b 403 743 572 640 504 743 l 325 743 l 325 229 "},"đ":{"ha":890,"x_min":0,"x_max":0,"o":"m 846 490 b 438 0 849 196 686 0 l 117 0 l 117 394 l 39 394 l 39 565 l 117 565 l 117 971 l 438 971 b 846 490 682 971 846 779 m 435 229 b 604 488 536 229 604 332 b 435 743 604 640 536 743 l 357 743 l 357 565 l 471 565 l 471 394 l 357 394 l 357 229 "},"e":{"ha":674,"x_min":0,"x_max":0,"o":"m 324 613 l 582 613 l 582 390 l 324 390 l 324 232 l 618 232 l 618 0 l 85 0 l 85 972 l 607 972 l 607 751 l 324 751 "},"é":{"ha":674,"x_min":0,"x_max":0,"o":"m 353 1318 l 560 1240 l 560 1219 l 432 1044 l 251 1044 l 251 1067 m 324 613 l 582 613 l 582 390 l 324 390 l 324 232 l 618 232 l 618 0 l 85 0 l 85 972 l 607 972 l 607 751 l 324 751 "},"ĕ":{"ha":674,"x_min":0,"x_max":0,"o":"m 278 1272 b 346 1204 282 1232 308 1206 b 414 1272 383 1204 410 1231 l 592 1272 b 343 1032 592 1128 493 1032 b 97 1272 200 1032 101 1128 m 324 613 l 582 613 l 582 390 l 324 390 l 324 232 l 618 232 l 618 0 l 85 0 l 85 972 l 607 972 l 607 751 l 324 751 "},"ě":{"ha":674,"x_min":0,"x_max":0,"o":"m 421 1288 l 629 1288 l 629 1265 l 463 1057 l 246 1057 l 81 1265 l 81 1288 l 286 1288 l 354 1192 m 324 613 l 582 613 l 582 390 l 324 390 l 324 232 l 618 232 l 618 0 l 85 0 l 85 972 l 607 972 l 607 751 l 324 751 "},"ê":{"ha":674,"x_min":0,"x_max":0,"o":"m 289 1042 l 79 1042 l 79 1063 l 246 1276 l 460 1276 l 622 1063 l 622 1042 l 417 1042 l 351 1139 m 324 613 l 582 613 l 582 390 l 324 390 l 324 232 l 618 232 l 618 0 l 85 0 l 85 972 l 607 972 l 607 751 l 324 751 "},"ë":{"ha":674,"x_min":0,"x_max":0,"o":"m 188 1046 b 65 1164 126 1046 65 1086 b 188 1283 65 1239 118 1283 b 308 1164 250 1283 308 1240 b 188 1046 308 1092 253 1046 m 513 1046 b 390 1164 454 1046 390 1086 b 513 1283 390 1239 447 1283 b 633 1164 576 1283 633 1239 b 513 1046 633 1092 579 1046 m 324 613 l 582 613 l 582 390 l 324 390 l 324 232 l 618 232 l 618 0 l 85 0 l 85 972 l 607 972 l 607 751 l 324 751 "},"ė":{"ha":674,"x_min":0,"x_max":0,"o":"m 344 1039 b 215 1165 272 1039 215 1088 b 344 1293 215 1243 271 1293 b 474 1165 417 1293 474 1246 b 344 1039 474 1089 418 1039 m 324 613 l 582 613 l 582 390 l 324 390 l 324 232 l 618 232 l 618 0 l 85 0 l 85 972 l 607 972 l 607 751 l 324 751 "},"è":{"ha":674,"x_min":0,"x_max":0,"o":"m 168 1217 l 168 1238 l 375 1315 l 476 1064 l 476 1042 l 296 1042 m 324 613 l 582 613 l 582 390 l 324 390 l 324 232 l 618 232 l 618 0 l 85 0 l 85 972 l 607 972 l 607 751 l 324 751 "},"ē":{"ha":674,"x_min":0,"x_max":0,"o":"m 547 1060 l 146 1060 l 146 1247 l 547 1247 m 324 613 l 582 613 l 582 390 l 324 390 l 324 232 l 618 232 l 618 0 l 85 0 l 85 972 l 607 972 l 607 751 l 324 751 "},"ę":{"ha":675,"x_min":0,"x_max":0,"o":"m 322 613 l 583 613 l 583 390 l 322 390 l 322 232 l 619 232 l 619 0 l 519 0 b 468 -93 494 -22 476 -56 b 550 -174 453 -162 510 -185 b 625 -131 576 -167 610 -146 l 657 -278 b 494 -340 613 -312 556 -337 b 297 -210 406 -344 321 -312 b 371 0 278 -125 322 -53 l 83 0 l 83 972 l 608 972 l 608 751 l 322 751 "},"f":{"ha":647,"x_min":0,"x_max":0,"o":"m 325 0 l 85 0 l 85 972 l 607 972 l 607 751 l 325 751 l 325 536 l 571 536 l 571 314 l 325 314 "},"g":{"ha":899,"x_min":0,"x_max":0,"o":"m 43 485 b 471 986 43 786 225 986 b 851 651 635 986 810 890 l 618 651 b 471 758 593 729 542 758 b 286 486 350 758 286 650 b 471 219 286 326 360 219 b 618 338 538 219 594 244 l 471 338 l 471 551 l 861 551 b 471 -12 883 243 772 -12 b 43 485 214 -12 43 186 "},"ğ":{"ha":899,"x_min":0,"x_max":0,"o":"m 392 1297 b 463 1226 396 1256 424 1228 b 533 1297 501 1226 529 1254 l 718 1297 b 460 1047 718 1147 615 1047 b 204 1297 311 1047 208 1147 m 43 485 b 471 986 43 786 225 986 b 851 651 635 986 810 890 l 618 651 b 471 758 593 729 542 758 b 286 486 350 758 286 650 b 471 219 286 326 360 219 b 618 338 538 219 594 244 l 471 338 l 471 551 l 861 551 b 471 -12 883 243 772 -12 b 43 485 214 -12 43 186 "},"ĝ":{"ha":899,"x_min":0,"x_max":0,"o":"m 399 1053 l 181 1053 l 181 1075 l 353 1292 l 578 1292 l 749 1075 l 749 1053 l 533 1053 l 464 1151 m 43 485 b 471 986 43 786 225 986 b 851 651 635 986 810 890 l 618 651 b 471 758 593 729 542 758 b 286 486 350 758 286 650 b 471 219 286 326 360 219 b 618 338 538 219 594 244 l 471 338 l 471 551 l 861 551 b 471 -12 883 243 772 -12 b 43 485 214 -12 43 186 "},"ģ":{"ha":899,"x_min":0,"x_max":0,"o":"m 43 485 b 471 986 43 786 225 986 b 851 651 635 986 810 890 l 618 651 b 471 758 593 729 542 758 b 286 486 350 758 286 650 b 471 219 286 326 360 219 b 618 338 538 219 594 244 l 471 338 l 471 551 l 861 551 b 471 -12 883 243 772 -12 b 43 485 214 -12 43 186 m 561 -175 b 554 -217 561 -193 558 -201 l 513 -367 l 406 -367 l 426 -281 b 350 -175 385 -267 350 -229 b 456 -65 350 -108 394 -65 b 561 -175 519 -65 561 -110 "},"ġ":{"ha":899,"x_min":0,"x_max":0,"o":"m 468 1050 b 340 1168 404 1050 340 1092 b 468 1288 340 1239 403 1288 b 596 1168 543 1288 596 1239 b 468 1050 596 1093 543 1050 m 43 485 b 471 986 43 786 225 986 b 851 651 635 986 810 890 l 618 651 b 471 758 593 729 542 758 b 286 486 350 758 286 650 b 471 219 286 326 360 219 b 618 338 538 219 594 244 l 471 338 l 471 551 l 861 551 b 471 -12 883 243 772 -12 b 43 485 214 -12 43 186 "},"h":{"ha":869,"x_min":0,"x_max":0,"o":"m 325 389 l 325 0 l 85 0 l 85 972 l 325 972 l 325 621 l 544 621 l 544 972 l 785 972 l 785 0 l 544 0 l 544 389 "},"ħ":{"ha":922,"x_min":0,"x_max":0,"o":"m 110 972 l 351 972 l 351 849 l 571 849 l 571 972 l 810 972 l 810 849 l 885 849 l 885 708 l 810 708 l 810 0 l 571 0 l 571 367 l 351 367 l 351 0 l 110 0 l 110 708 l 39 708 l 39 849 l 110 849 m 351 708 l 351 599 l 571 599 l 571 708 "},"ĥ":{"ha":869,"x_min":0,"x_max":0,"o":"m 364 1044 l 144 1044 l 144 1067 l 317 1283 l 542 1283 l 714 1067 l 714 1044 l 497 1044 l 429 1143 m 325 389 l 325 0 l 85 0 l 85 972 l 325 972 l 325 621 l 544 621 l 544 972 l 785 972 l 785 0 l 544 0 l 544 389 "},"i":{"ha":544,"x_min":0,"x_max":0,"o":"m 54 0 l 54 206 l 151 206 l 151 767 l 64 767 l 64 972 l 481 972 l 481 767 l 392 767 l 392 206 l 490 206 l 490 0 "},"ı":{"ha":544,"x_min":0,"x_max":0,"o":"m 54 0 l 54 206 l 151 206 l 151 767 l 64 767 l 64 972 l 481 972 l 481 767 l 392 767 l 392 206 l 490 206 l 490 0 "},"í":{"ha":544,"x_min":0,"x_max":0,"o":"m 261 1319 l 468 1242 l 468 1221 l 339 1046 l 158 1046 l 158 1068 m 54 0 l 54 206 l 151 206 l 151 767 l 64 767 l 64 972 l 481 972 l 481 767 l 392 767 l 392 206 l 490 206 l 490 0 "},"ĭ":{"ha":543,"x_min":0,"x_max":0,"o":"m 208 1310 b 300 1239 211 1256 263 1232 b 350 1310 328 1244 346 1267 l 532 1310 b 279 1049 532 1142 414 1049 b 25 1310 154 1049 25 1140 m 54 0 l 54 206 l 151 206 l 151 767 l 64 767 l 64 972 l 481 972 l 481 767 l 392 767 l 392 206 l 489 206 l 489 0 "},"î":{"ha":544,"x_min":0,"x_max":0,"o":"m 208 1053 l 0 1053 l 0 1074 l 164 1285 l 379 1285 l 543 1074 l 543 1053 l 338 1053 l 271 1149 m 54 0 l 54 206 l 153 206 l 153 767 l 64 767 l 64 972 l 481 972 l 481 767 l 392 767 l 392 206 l 490 206 l 490 0 "},"ï":{"ha":544,"x_min":0,"x_max":0,"o":"m 111 1046 b -11 1164 50 1046 -11 1086 b 111 1283 -11 1239 42 1283 b 232 1164 174 1283 232 1240 b 111 1046 232 1092 176 1046 m 436 1046 b 314 1164 378 1046 314 1086 b 436 1283 314 1239 371 1283 b 557 1164 500 1283 557 1239 b 436 1046 557 1092 503 1046 m 54 0 l 54 206 l 153 206 l 153 767 l 64 767 l 64 972 l 481 972 l 481 767 l 393 767 l 393 206 l 490 206 l 490 0 "},"ì":{"ha":544,"x_min":0,"x_max":0,"o":"m 82 1218 l 82 1239 l 288 1317 l 390 1065 l 390 1043 l 210 1043 m 54 0 l 54 206 l 151 206 l 151 767 l 64 767 l 64 972 l 481 972 l 481 767 l 392 767 l 392 206 l 490 206 l 490 0 "},"ĳ":{"ha":1282,"x_min":0,"x_max":0,"o":"m 54 0 l 54 206 l 151 206 l 151 767 l 64 767 l 64 972 l 481 972 l 481 767 l 392 767 l 392 206 l 490 206 l 490 0 m 1204 321 b 883 -14 1204 108 1053 -14 b 568 321 711 -14 568 108 l 568 447 l 792 447 l 792 325 b 882 211 792 247 832 211 b 964 325 929 211 964 247 l 964 757 l 846 757 l 846 972 l 1204 972 "},"ī":{"ha":544,"x_min":0,"x_max":0,"o":"m 474 1065 l 72 1065 l 72 1253 l 474 1253 m 54 0 l 54 206 l 151 206 l 151 767 l 64 767 l 64 972 l 481 972 l 481 767 l 392 767 l 392 206 l 490 206 l 490 0 "},"į":{"ha":544,"x_min":0,"x_max":0,"o":"m 354 0 b 300 -110 321 -26 297 -68 b 381 -174 303 -160 340 -187 b 457 -131 404 -168 439 -146 l 489 -278 b 307 -336 442 -317 371 -339 b 135 -210 240 -333 156 -306 b 206 0 118 -132 144 -60 l 54 0 l 54 206 l 151 206 l 151 767 l 64 767 l 64 972 l 481 972 l 481 767 l 392 767 l 392 206 l 490 206 l 490 0 "},"ĩ":{"ha":544,"x_min":0,"x_max":0,"o":"m 7 1108 b 164 1279 24 1210 86 1279 b 400 1268 271 1279 376 1135 l 536 1217 b 379 1044 524 1121 479 1044 b 135 1049 288 1044 179 1181 m 54 0 l 54 206 l 153 206 l 153 767 l 64 767 l 64 972 l 481 972 l 481 767 l 393 767 l 393 206 l 490 206 l 490 0 "},"j":{"ha":738,"x_min":0,"x_max":0,"o":"m 660 321 b 339 -14 660 108 508 -14 b 24 321 167 -14 24 108 l 24 447 l 247 447 l 247 325 b 338 211 247 247 288 211 b 419 325 385 211 419 247 l 419 757 l 301 757 l 301 972 l 660 972 "},"ĵ":{"ha":738,"x_min":0,"x_max":0,"o":"m 397 1053 l 192 1053 l 192 1075 l 354 1294 l 565 1294 l 728 1075 l 728 1053 l 525 1053 l 460 1153 m 660 321 b 339 -14 660 119 531 -14 b 24 321 190 -14 24 90 l 24 447 l 247 447 l 247 325 b 338 211 247 246 288 211 b 419 325 385 211 419 247 l 419 754 l 314 754 l 314 972 l 660 972 "},"k":{"ha":864,"x_min":0,"x_max":0,"o":"m 324 592 b 431 607 349 592 403 589 b 500 804 465 629 476 688 b 808 971 524 922 608 1018 l 808 800 b 719 731 765 804 732 790 b 621 472 693 614 664 532 b 846 38 696 328 768 182 l 846 0 l 574 0 l 410 375 b 324 371 390 371 350 371 l 324 0 l 83 0 l 83 972 l 324 972 "},"ķ":{"ha":863,"x_min":0,"x_max":0,"o":"m 365 592 b 501 804 442 592 463 603 b 697 982 519 897 575 972 b 808 971 731 985 768 982 l 808 800 b 699 675 722 806 728 778 b 621 472 674 589 651 521 b 846 38 696 328 768 182 l 846 0 l 574 0 l 410 375 b 324 371 389 371 353 371 l 324 0 l 83 0 l 83 972 l 324 972 l 324 592 m 561 -172 b 554 -215 561 -190 558 -200 l 501 -386 l 390 -386 l 421 -282 b 342 -172 378 -268 342 -226 b 451 -58 342 -104 390 -58 b 561 -172 514 -58 561 -101 "},"ĸ":{"ha":864,"x_min":0,"x_max":0,"o":"m 324 592 b 431 607 349 592 403 589 b 500 804 465 629 476 688 b 808 971 524 922 608 1018 l 808 800 b 719 731 765 804 732 790 b 621 472 693 614 664 532 b 846 38 696 328 768 182 l 846 0 l 574 0 l 410 375 b 324 371 390 371 350 371 l 324 0 l 83 0 l 83 972 l 324 972 "},"l":{"ha":611,"x_min":0,"x_max":0,"o":"m 594 0 l 85 0 l 85 972 l 325 972 l 325 228 l 594 228 "},"ĺ":{"ha":611,"x_min":0,"x_max":0,"o":"m 207 1318 l 414 1240 l 414 1219 l 286 1044 l 106 1044 l 106 1067 m 594 0 l 85 0 l 85 972 l 325 972 l 325 228 l 594 228 "},"ľ":{"ha":661,"x_min":0,"x_max":0,"o":"m 614 807 b 603 772 608 796 606 783 l 563 617 l 438 617 l 469 738 b 382 854 417 750 382 794 b 506 976 382 928 432 976 b 628 854 575 976 633 928 b 614 807 628 833 622 824 m 593 0 l 83 0 l 83 972 l 324 972 l 324 228 l 593 228 "},"ļ":{"ha":611,"x_min":0,"x_max":0,"o":"m 594 0 l 85 0 l 85 972 l 325 972 l 325 228 l 594 228 m 450 -172 b 443 -215 450 -190 447 -200 l 390 -386 l 279 -386 l 310 -282 b 231 -172 267 -268 231 -226 b 340 -58 231 -104 279 -58 b 450 -172 403 -58 450 -101 "},"ŀ":{"ha":653,"x_min":0,"x_max":0,"o":"m 594 0 l 85 0 l 85 972 l 325 972 l 325 228 l 594 228 m 499 399 b 378 526 432 399 378 449 b 499 654 378 604 432 654 b 618 526 568 654 618 604 b 499 399 618 449 568 399 "},"ł":{"ha":667,"x_min":0,"x_max":0,"o":"m 494 478 l 364 433 l 364 228 l 646 228 l 646 0 l 124 0 l 124 364 l 39 335 l 39 510 l 124 539 l 124 972 l 364 972 l 364 608 l 494 653 "},"m":{"ha":989,"x_min":0,"x_max":0,"o":"m 904 0 l 664 0 l 664 440 l 507 232 l 481 232 l 325 440 l 325 0 l 85 0 l 85 978 l 169 978 l 494 557 l 819 978 l 904 978 "},"n":{"ha":892,"x_min":0,"x_max":0,"o":"m 83 0 l 83 981 l 158 981 l 568 508 l 568 972 l 808 972 l 808 -7 l 739 -7 l 324 474 l 324 0 "},"ń":{"ha":892,"x_min":0,"x_max":0,"o":"m 419 1310 l 621 1232 l 621 1211 l 496 1036 l 321 1036 l 321 1058 m 83 0 l 83 981 l 158 981 l 568 508 l 568 972 l 808 972 l 808 -7 l 739 -7 l 324 474 l 324 0 "},"ŉ":{"ha":892,"x_min":0,"x_max":0,"o":"m 83 0 l 83 981 l 158 981 l 568 508 l 568 972 l 808 972 l 808 -7 l 739 -7 l 324 474 l 324 0 "},"ň":{"ha":892,"x_min":0,"x_max":0,"o":"m 506 1272 l 718 1272 l 718 1251 l 540 1039 l 335 1039 l 161 1251 l 161 1272 l 371 1272 l 439 1176 m 83 0 l 83 981 l 158 981 l 568 508 l 568 972 l 808 972 l 808 -7 l 739 -7 l 324 474 l 324 0 "},"ņ":{"ha":892,"x_min":0,"x_max":0,"o":"m 83 0 l 83 981 l 158 981 l 568 508 l 568 972 l 808 972 l 808 -7 l 739 -7 l 324 474 l 324 0 m 617 -157 b 610 -200 617 -175 614 -185 l 557 -371 l 446 -371 l 476 -267 b 399 -157 436 -254 399 -211 b 508 -43 399 -89 446 -43 b 617 -157 569 -43 617 -86 "},"ŋ":{"ha":892,"x_min":0,"x_max":0,"o":"m 521 -96 b 611 4 590 -103 611 -89 l 611 129 l 324 472 l 324 0 l 83 0 l 83 976 l 158 976 l 568 497 l 568 972 l 808 972 l 808 1 b 688 -268 808 -158 763 -247 b 514 -265 640 -281 582 -278 "},"ñ":{"ha":892,"x_min":0,"x_max":0,"o":"m 172 1099 b 329 1269 189 1200 251 1269 b 565 1258 436 1269 542 1125 l 701 1207 b 544 1035 689 1111 644 1035 b 300 1039 453 1035 344 1171 m 83 0 l 83 981 l 158 981 l 568 508 l 568 972 l 808 972 l 808 -7 l 739 -7 l 324 474 l 324 0 "},"o":{"ha":936,"x_min":0,"x_max":0,"o":"m 893 486 b 469 -14 893 186 724 -14 b 43 486 214 -14 43 186 b 469 986 43 786 214 986 b 893 486 724 986 893 786 m 282 486 b 469 224 282 331 357 224 b 651 486 579 224 651 331 b 469 747 651 642 579 747 b 282 486 357 747 282 642 "},"ó":{"ha":936,"x_min":0,"x_max":0,"o":"m 458 1324 l 657 1246 l 657 1225 l 535 1050 l 363 1050 l 363 1072 m 893 486 b 469 -14 893 186 724 -14 b 43 486 214 -14 43 186 b 469 986 43 786 214 986 b 893 486 724 986 893 786 m 282 486 b 469 224 282 331 357 224 b 651 486 579 224 651 331 b 469 747 651 642 579 747 b 282 486 357 747 282 642 "},"ŏ":{"ha":936,"x_min":0,"x_max":0,"o":"m 393 1303 b 464 1232 397 1261 425 1233 b 535 1303 503 1232 531 1260 l 719 1303 b 461 1053 719 1153 617 1053 b 206 1303 313 1053 210 1153 m 893 486 b 469 -14 893 186 724 -14 b 43 486 214 -14 43 186 b 469 986 43 786 214 986 b 893 486 724 986 893 786 m 282 486 b 469 224 282 331 357 224 b 651 486 579 224 651 331 b 469 747 651 642 579 747 b 282 486 357 747 282 642 "},"ô":{"ha":936,"x_min":0,"x_max":0,"o":"m 407 1046 l 189 1046 l 189 1068 l 361 1285 l 586 1285 l 757 1068 l 757 1046 l 542 1046 l 472 1144 m 893 486 b 469 -14 893 186 724 -14 b 43 486 214 -14 43 186 b 469 986 43 786 214 986 b 893 486 724 986 893 786 m 282 486 b 469 224 282 331 357 224 b 651 486 579 224 651 331 b 469 747 651 642 579 747 b 282 486 357 747 282 642 "},"ö":{"ha":936,"x_min":0,"x_max":0,"o":"m 301 1043 b 179 1161 242 1043 179 1083 b 301 1281 179 1236 233 1281 b 424 1161 365 1281 424 1238 b 301 1043 424 1089 368 1043 m 628 1043 b 506 1161 568 1043 506 1083 b 628 1281 506 1236 563 1281 b 747 1161 692 1281 747 1236 b 628 1043 747 1089 693 1043 m 893 486 b 469 -14 893 186 724 -14 b 43 486 214 -14 43 186 b 469 986 43 786 214 986 b 893 486 724 986 893 786 m 282 486 b 469 224 282 331 357 224 b 651 486 579 224 651 331 b 469 747 651 642 579 747 b 282 486 357 747 282 642 "},"ò":{"ha":936,"x_min":0,"x_max":0,"o":"m 282 1228 l 282 1249 l 481 1326 l 578 1075 l 578 1053 l 404 1053 m 893 486 b 469 -14 893 186 724 -14 b 43 486 214 -14 43 186 b 469 986 43 786 214 986 b 893 486 724 986 893 786 m 282 486 b 469 224 282 331 357 224 b 651 486 579 224 651 331 b 469 747 651 642 579 747 b 282 486 357 747 282 642 "},"ő":{"ha":936,"x_min":0,"x_max":0,"o":"m 538 1268 l 538 1257 l 414 1050 l 240 1050 l 240 1058 l 339 1314 m 821 1239 l 821 1229 l 696 1050 l 524 1050 l 524 1058 l 624 1294 m 893 486 b 469 -14 893 186 724 -14 b 43 486 214 -14 43 186 b 469 986 43 786 214 986 b 893 486 724 986 893 786 m 282 486 b 469 224 282 331 357 224 b 651 486 579 224 651 331 b 469 747 651 642 579 747 b 282 486 357 747 282 642 "},"ō":{"ha":936,"x_min":0,"x_max":0,"o":"m 665 1072 l 265 1072 l 265 1246 l 665 1246 m 893 486 b 469 -14 893 186 724 -14 b 43 486 214 -14 43 186 b 469 986 43 786 214 986 b 893 486 724 986 893 786 m 282 486 b 469 224 282 331 357 224 b 651 486 579 224 651 331 b 469 747 651 642 579 747 b 282 486 357 747 282 642 "},"ø":{"ha":938,"x_min":0,"x_max":0,"o":"m 779 853 b 892 486 851 769 892 643 b 469 -17 892 164 701 -17 b 347 6 429 -17 385 -11 l 300 -89 l 211 -89 b 78 -89 167 -89 122 -90 l 78 -62 l 169 111 b 46 486 89 196 46 321 b 471 989 46 818 257 989 b 606 963 518 989 564 983 l 651 1056 l 875 1056 l 875 1032 m 494 744 b 469 749 486 747 479 749 b 286 486 372 749 286 647 b 306 328 286 421 292 372 m 458 226 b 492 224 471 225 478 224 b 535 228 506 224 521 225 b 651 486 610 247 651 351 b 640 632 651 542 647 589 "},"ǿ":{"ha":936,"x_min":0,"x_max":0,"o":"m 469 1344 l 675 1267 l 675 1246 l 547 1071 l 367 1071 l 367 1093 m 778 853 b 890 486 850 767 890 649 b 468 -17 890 156 685 -17 b 346 6 428 -17 383 -11 l 299 -89 l 188 -89 b 76 -89 150 -89 113 -90 l 76 -62 l 168 111 b 44 486 90 194 44 322 b 469 989 44 821 257 989 b 604 963 517 989 560 982 l 650 1056 l 874 1056 l 874 1032 m 493 744 b 468 749 485 747 478 749 b 285 486 369 749 285 643 b 304 328 285 421 294 365 m 457 226 b 490 224 469 225 476 224 b 526 228 503 224 515 225 b 650 486 631 253 650 354 b 639 632 650 546 646 590 "},"õ":{"ha":936,"x_min":0,"x_max":0,"o":"m 203 1114 b 360 1285 219 1215 282 1285 b 596 1274 467 1285 572 1140 l 732 1222 b 575 1050 719 1126 675 1050 b 331 1054 483 1050 375 1186 m 893 486 b 469 -14 893 186 724 -14 b 43 486 214 -14 43 186 b 469 986 43 786 214 986 b 893 486 724 986 893 786 m 282 486 b 469 224 282 331 357 224 b 651 486 579 224 651 331 b 469 747 651 642 579 747 b 282 486 357 747 282 642 "},"œ":{"ha":1090,"x_min":0,"x_max":0,"o":"m 568 0 b 454 -15 532 -11 493 -15 b 43 483 207 -15 43 185 b 467 985 43 789 213 989 b 572 969 503 985 542 979 l 1025 969 l 1025 763 l 743 763 l 743 610 l 997 610 l 997 414 l 743 414 l 743 206 l 1035 206 l 1035 0 m 276 483 b 475 194 276 310 356 194 b 542 208 500 194 518 197 l 542 747 b 472 764 521 758 494 764 b 276 483 354 764 276 651 "},"p":{"ha":781,"x_min":0,"x_max":0,"o":"m 429 972 b 754 608 631 972 761 826 b 429 258 754 394 624 258 l 325 258 l 325 1 l 85 1 l 85 972 m 429 474 b 525 615 486 474 525 531 b 429 753 525 697 486 753 l 321 753 l 321 474 "},"þ":{"ha":779,"x_min":0,"x_max":0,"o":"m 325 856 l 438 856 b 754 490 628 856 754 710 b 438 135 754 276 628 135 l 325 135 l 325 0 l 85 0 l 85 972 l 325 972 m 419 356 b 525 497 483 356 525 413 b 419 635 525 579 483 635 l 321 635 l 321 356 "},"q":{"ha":969,"x_min":0,"x_max":0,"o":"m 719 -11 l 690 47 b 469 -14 628 8 553 -14 b 43 486 214 -14 43 186 b 469 986 43 786 214 986 b 893 486 724 986 893 786 b 831 206 893 378 871 283 l 942 -3 l 942 -11 m 469 224 b 651 486 579 224 651 331 b 469 747 651 642 579 747 b 282 486 357 747 282 642 b 469 224 282 331 357 224 "},"r":{"ha":828,"x_min":0,"x_max":0,"o":"m 542 1 l 417 306 l 325 306 l 325 1 l 85 1 l 85 972 l 428 972 b 756 629 625 972 756 835 b 639 367 754 518 725 431 l 804 14 l 804 1 m 426 513 b 524 635 485 513 524 561 b 426 753 524 706 485 753 l 321 753 l 321 513 "},"ŕ":{"ha":828,"x_min":0,"x_max":0,"o":"m 369 1313 l 565 1235 l 565 1214 l 446 1039 l 275 1039 l 275 1061 m 542 1 l 417 306 l 325 306 l 325 1 l 85 1 l 85 972 l 428 972 b 756 629 625 972 756 835 b 639 367 754 518 725 431 l 804 14 l 804 1 m 426 513 b 524 635 485 513 524 561 b 426 753 524 706 485 753 l 321 753 l 321 513 "},"ř":{"ha":828,"x_min":0,"x_max":0,"o":"m 444 1274 l 653 1274 l 653 1251 l 488 1043 l 272 1043 l 107 1251 l 107 1274 l 313 1274 l 381 1178 m 542 1 l 417 306 l 325 306 l 325 1 l 85 1 l 85 972 l 428 972 b 756 629 625 972 756 835 b 639 367 754 518 725 431 l 804 14 l 804 1 m 426 513 b 524 635 485 513 524 561 b 426 753 524 706 485 753 l 321 753 l 321 513 "},"ŗ":{"ha":828,"x_min":0,"x_max":0,"o":"m 542 1 l 417 306 l 325 306 l 325 1 l 85 1 l 85 972 l 428 972 b 756 629 625 972 756 835 b 639 367 754 518 725 431 l 804 14 l 804 1 m 426 513 b 524 635 485 513 524 561 b 426 753 524 706 485 753 l 321 753 l 321 513 m 540 -158 b 535 -201 540 -176 539 -186 l 482 -372 l 371 -372 l 400 -268 b 322 -158 357 -254 322 -212 b 432 -44 322 -90 369 -44 b 540 -158 493 -44 540 -87 "},"s":{"ha":768,"x_min":0,"x_max":0,"o":"m 274 307 b 383 206 272 247 317 206 b 490 293 447 206 490 238 b 356 382 490 372 404 378 b 53 678 204 393 53 475 b 378 986 53 868 183 986 b 697 668 575 986 703 858 l 472 668 b 382 768 476 726 439 768 b 289 679 325 768 289 735 b 396 596 289 636 321 606 b 728 290 572 578 728 526 b 386 -14 728 104 592 -14 b 46 307 176 -14 40 114 "},"ś":{"ha":768,"x_min":0,"x_max":0,"o":"m 371 1325 l 571 1247 l 571 1226 l 447 1051 l 274 1051 l 274 1074 m 274 307 b 383 206 272 247 317 206 b 490 293 447 206 490 238 b 356 382 490 372 404 378 b 53 678 204 393 53 475 b 378 986 53 868 183 986 b 697 668 575 986 703 858 l 472 668 b 382 768 476 726 439 768 b 289 679 325 768 289 735 b 396 596 289 636 321 606 b 728 290 572 578 728 526 b 386 -14 728 104 592 -14 b 46 307 176 -14 40 114 "},"š":{"ha":768,"x_min":0,"x_max":0,"o":"m 451 1272 l 660 1272 l 660 1250 l 493 1042 l 278 1042 l 114 1250 l 114 1272 l 319 1272 l 386 1176 m 274 307 b 383 206 272 247 317 206 b 490 293 447 206 490 238 b 356 382 490 372 404 378 b 53 678 204 393 53 475 b 378 986 53 868 183 986 b 697 668 575 986 703 858 l 472 668 b 382 768 476 726 439 768 b 289 679 325 768 289 735 b 396 596 289 636 321 606 b 728 290 572 578 728 526 b 386 -14 728 104 592 -14 b 46 307 176 -14 40 114 "},"ş":{"ha":768,"x_min":0,"x_max":0,"o":"m 728 290 b 481 -4 728 135 632 26 l 464 -81 b 549 -190 522 -93 549 -133 b 425 -346 549 -279 503 -335 b 233 -306 363 -356 285 -339 l 247 -178 b 306 -200 264 -189 286 -200 b 353 -175 326 -200 349 -194 b 289 -119 363 -135 307 -119 l 314 -8 b 46 307 146 18 40 138 l 274 307 b 383 206 272 247 317 206 b 490 293 447 206 490 238 b 356 382 490 372 404 378 b 53 678 204 393 53 475 b 378 986 53 868 183 986 b 697 668 575 986 703 858 l 472 668 b 382 768 476 726 439 768 b 289 679 325 768 289 735 b 396 596 289 636 321 606 b 728 290 572 578 728 526 "},"ŝ":{"ha":768,"x_min":0,"x_max":0,"o":"m 307 1050 l 94 1050 l 94 1072 l 267 1289 l 492 1289 l 663 1072 l 663 1050 l 453 1050 l 378 1149 m 274 307 b 383 206 272 247 317 206 b 490 293 447 206 490 238 b 356 382 490 372 404 378 b 53 678 204 393 53 475 b 378 986 53 868 183 986 b 697 668 575 986 703 858 l 472 668 b 382 768 476 726 439 768 b 289 679 325 768 289 735 b 396 596 289 636 321 606 b 728 290 572 578 728 526 b 386 -14 728 104 592 -14 b 46 307 176 -14 40 114 "},"ș":{"ha":768,"x_min":0,"x_max":0,"o":"m 274 307 b 383 206 272 247 317 206 b 490 293 447 206 490 238 b 356 382 490 372 404 378 b 53 678 204 393 53 475 b 378 986 53 868 183 986 b 697 668 575 986 703 858 l 472 668 b 382 768 476 726 439 768 b 289 679 325 768 289 735 b 396 596 289 636 321 606 b 728 290 572 578 728 526 b 386 -14 728 104 592 -14 b 46 307 176 -14 40 114 m 499 -162 b 485 -232 499 -181 496 -203 l 440 -364 l 335 -364 l 364 -262 b 288 -162 322 -250 288 -215 b 407 -57 288 -89 350 -56 b 499 -162 458 -60 499 -99 "},"ß":{"ha":772,"x_min":0,"x_max":0,"o":"m 79 682 b 376 986 79 906 200 986 b 692 911 474 986 574 972 l 692 899 l 582 558 b 726 308 667 539 726 439 b 368 17 726 33 585 -51 l 368 206 b 489 318 447 185 489 229 b 360 432 489 431 422 442 l 360 469 l 435 769 b 379 785 419 781 394 785 b 300 678 336 785 300 753 l 300 0 l 79 0 "},"ſ":{"ha":410,"x_min":0,"x_max":0,"o":"m 28 669 l 124 669 l 124 740 b 371 1021 124 951 221 1025 b 529 983 417 1019 474 1010 l 492 828 b 419 844 461 840 442 844 b 344 731 357 844 344 771 l 344 0 l 119 0 l 119 503 l 28 503 "},"t":{"ha":657,"x_min":0,"x_max":0,"o":"m 636 972 l 636 750 l 446 750 l 446 0 l 213 0 l 213 750 l 21 750 l 21 972 "},"ŧ":{"ha":675,"x_min":0,"x_max":0,"o":"m 222 750 l 28 750 l 28 972 l 649 972 l 649 750 l 454 750 l 454 517 l 554 517 l 554 357 l 454 357 l 454 0 l 222 0 l 222 357 l 117 357 l 117 517 l 222 517 "},"ť":{"ha":657,"x_min":0,"x_max":0,"o":"m 399 1268 l 615 1268 l 615 1246 l 443 1029 l 218 1029 l 47 1246 l 47 1268 l 261 1268 l 331 1169 m 636 972 l 636 750 l 446 750 l 446 0 l 213 0 l 213 750 l 21 750 l 21 972 "},"ţ":{"ha":663,"x_min":0,"x_max":0,"o":"m 642 972 l 642 750 l 447 750 l 447 0 l 215 0 l 215 750 l 21 750 l 21 972 m 269 -361 l 293 -265 b 208 -164 244 -265 208 -219 b 332 -49 208 -92 263 -49 b 453 -161 392 -49 453 -87 b 399 -361 453 -181 443 -240 "},"u":{"ha":835,"x_min":0,"x_max":0,"o":"m 418 -12 b 78 326 214 -12 78 124 l 78 972 l 318 972 l 318 332 b 419 211 318 260 358 211 b 518 332 479 211 518 260 l 518 972 l 757 972 l 757 326 b 418 -12 757 124 621 -12 "},"ú":{"ha":835,"x_min":0,"x_max":0,"o":"m 413 1311 l 618 1233 l 618 1213 l 490 1038 l 310 1038 l 310 1060 m 418 -12 b 78 326 214 -12 78 124 l 78 972 l 318 972 l 318 332 b 419 211 318 260 358 211 b 518 332 479 211 518 260 l 518 972 l 757 972 l 757 326 b 418 -12 757 124 621 -12 "},"ŭ":{"ha":835,"x_min":0,"x_max":0,"o":"m 347 1285 b 418 1214 351 1243 379 1215 b 489 1285 457 1214 485 1242 l 674 1285 b 415 1035 674 1135 571 1035 b 160 1285 267 1035 164 1135 m 418 -12 b 78 326 214 -12 78 124 l 78 972 l 318 972 l 318 332 b 419 211 318 260 358 211 b 518 332 479 211 518 260 l 518 972 l 757 972 l 757 326 b 418 -12 757 124 621 -12 "},"û":{"ha":835,"x_min":0,"x_max":0,"o":"m 353 1053 l 135 1053 l 135 1075 l 307 1286 l 532 1286 l 703 1075 l 703 1053 l 488 1053 l 418 1146 m 418 -12 b 78 326 214 -12 78 124 l 78 972 l 318 972 l 318 332 b 419 211 318 260 358 211 b 518 332 479 211 518 260 l 518 972 l 757 972 l 757 326 b 418 -12 757 124 621 -12 "},"ü":{"ha":835,"x_min":0,"x_max":0,"o":"m 256 1063 b 135 1181 196 1063 135 1103 b 256 1300 135 1256 188 1300 b 378 1181 319 1300 378 1257 b 256 1063 378 1108 322 1063 m 582 1063 b 460 1181 522 1063 460 1103 b 582 1300 460 1256 517 1300 b 701 1181 646 1300 701 1256 b 582 1063 701 1108 647 1063 m 418 -12 b 78 326 214 -12 78 124 l 78 972 l 318 972 l 318 332 b 419 211 318 260 358 211 b 518 332 479 211 518 260 l 518 972 l 757 972 l 757 326 b 418 -12 757 124 621 -12 "},"ù":{"ha":835,"x_min":0,"x_max":0,"o":"m 207 1217 l 207 1238 l 414 1315 l 517 1064 l 517 1042 l 336 1042 m 418 -12 b 78 326 214 -12 78 124 l 78 972 l 318 972 l 318 332 b 419 211 318 260 358 211 b 518 332 479 211 518 260 l 518 972 l 757 972 l 757 326 b 418 -12 757 124 621 -12 "},"ű":{"ha":835,"x_min":0,"x_max":0,"o":"m 457 1263 l 457 1243 l 346 1057 l 172 1057 l 172 1078 l 258 1308 m 740 1233 l 740 1213 l 629 1057 l 456 1057 l 456 1078 l 542 1289 m 418 -12 b 78 326 214 -12 78 124 l 78 972 l 318 972 l 318 332 b 419 211 318 260 358 211 b 518 332 479 211 518 260 l 518 972 l 757 972 l 757 326 b 418 -12 757 124 621 -12 "},"ū":{"ha":835,"x_min":0,"x_max":0,"o":"m 615 1079 l 214 1079 l 214 1253 l 615 1253 m 418 -12 b 78 326 214 -12 78 124 l 78 972 l 318 972 l 318 332 b 419 211 318 260 358 211 b 518 332 479 211 518 260 l 518 972 l 757 972 l 757 326 b 418 -12 757 124 621 -12 "},"ų":{"ha":835,"x_min":0,"x_max":0,"o":"m 579 22 b 526 -87 547 -4 524 -46 b 607 -149 529 -137 565 -158 b 683 -108 631 -143 665 -124 l 715 -256 b 533 -314 668 -294 597 -317 b 358 -183 467 -311 378 -279 b 408 -12 346 -121 367 -64 b 78 326 210 -8 78 126 l 78 972 l 318 972 l 318 332 b 419 211 318 260 358 211 b 518 332 479 211 518 260 l 518 972 l 757 972 l 757 326 b 579 22 757 183 690 75 "},"ů":{"ha":835,"x_min":0,"x_max":0,"o":"m 421 1021 b 244 1192 315 1021 244 1089 b 419 1367 244 1297 314 1367 b 590 1192 522 1367 590 1297 b 421 1021 590 1089 522 1021 m 365 1192 b 419 1139 365 1160 388 1139 b 469 1192 450 1139 469 1160 b 419 1246 469 1225 450 1246 b 365 1192 388 1246 365 1225 m 418 -12 b 78 326 214 -12 78 124 l 78 972 l 318 972 l 318 332 b 419 211 318 260 358 211 b 518 332 479 211 518 260 l 518 972 l 757 972 l 757 326 b 418 -12 757 124 621 -12 "},"ũ":{"ha":835,"x_min":0,"x_max":0,"o":"m 160 1114 b 317 1285 176 1215 239 1285 b 553 1274 424 1285 529 1140 l 689 1222 b 532 1050 676 1126 632 1050 b 288 1054 440 1050 332 1186 m 418 -12 b 78 326 214 -12 78 124 l 78 972 l 318 972 l 318 332 b 419 211 318 260 358 211 b 518 332 479 211 518 260 l 518 972 l 757 972 l 757 326 b 418 -12 757 124 621 -12 "},"v":{"ha":822,"x_min":0,"x_max":0,"o":"m 415 425 b 471 683 428 513 447 599 l 565 972 l 826 972 l 826 961 l 463 -14 l 363 -14 l -6 961 l -6 972 l 257 972 l 356 683 b 411 425 379 597 400 511 "},"w":{"ha":1206,"x_min":0,"x_max":0,"o":"m 822 424 b 874 707 835 525 854 618 l 949 972 l 1199 972 l 1199 963 l 917 -10 l 754 -10 l 606 435 l 601 435 l 460 -10 l 290 -10 l 8 961 l 8 972 l 258 972 l 335 707 b 390 424 357 617 378 524 l 393 424 l 533 956 l 689 956 l 819 424 "},"ẃ":{"ha":1206,"x_min":0,"x_max":0,"o":"m 600 1315 l 806 1238 l 806 1217 l 678 1042 l 497 1042 l 497 1064 m 822 424 b 874 707 835 525 854 618 l 949 972 l 1199 972 l 1199 963 l 917 -10 l 754 -10 l 606 435 l 601 435 l 460 -10 l 290 -10 l 8 961 l 8 972 l 258 972 l 335 707 b 390 424 357 617 378 524 l 393 424 l 533 956 l 689 956 l 819 424 "},"ŵ":{"ha":1206,"x_min":0,"x_max":0,"o":"m 535 1050 l 322 1050 l 322 1072 l 496 1289 l 719 1289 l 892 1072 l 892 1050 l 682 1050 l 607 1149 m 822 424 b 874 707 835 525 854 618 l 949 972 l 1199 972 l 1199 963 l 917 -10 l 754 -10 l 606 435 l 601 435 l 460 -10 l 290 -10 l 8 961 l 8 972 l 258 972 l 335 707 b 390 424 357 617 378 524 l 393 424 l 533 956 l 689 956 l 819 424 "},"ẅ":{"ha":1206,"x_min":0,"x_max":0,"o":"m 435 1057 b 313 1175 374 1057 313 1097 b 435 1294 313 1250 365 1294 b 556 1175 497 1294 556 1251 b 435 1057 556 1103 500 1057 m 788 1057 b 665 1175 729 1057 665 1097 b 788 1294 665 1250 722 1294 b 908 1175 851 1294 908 1250 b 788 1057 908 1103 854 1057 m 822 424 b 874 707 835 525 854 618 l 949 972 l 1199 972 l 1199 963 l 917 -10 l 754 -10 l 606 435 l 601 435 l 460 -10 l 290 -10 l 8 961 l 8 972 l 258 972 l 335 707 b 390 424 357 617 378 524 l 393 424 l 533 956 l 689 956 l 819 424 "},"ẁ":{"ha":1206,"x_min":0,"x_max":0,"o":"m 404 1219 l 404 1240 l 611 1318 l 713 1067 l 713 1044 l 532 1044 m 822 424 b 874 707 835 525 854 618 l 949 972 l 1199 972 l 1199 963 l 917 -10 l 754 -10 l 606 435 l 601 435 l 460 -10 l 290 -10 l 8 961 l 8 972 l 258 972 l 335 707 b 390 424 357 617 378 524 l 393 424 l 533 956 l 689 956 l 819 424 "},"x":{"ha":817,"x_min":0,"x_max":0,"o":"m 408 699 b 447 813 422 740 429 776 l 526 972 l 785 972 l 785 964 l 556 515 l 817 7 l 817 0 l 542 0 l 457 181 b 410 331 439 225 422 281 l 406 331 b 354 181 392 279 374 219 l 272 0 l 0 0 l 0 7 l 261 515 l 31 964 l 31 972 l 288 972 l 367 813 b 406 699 383 778 394 738 "},"y":{"ha":782,"x_min":0,"x_max":0,"o":"m 392 608 b 444 779 404 661 421 725 l 528 972 l 782 972 l 782 958 l 511 371 l 511 0 l 271 0 l 271 371 l -3 958 l -3 972 l 254 972 l 336 779 b 389 608 358 725 375 660 "},"ý":{"ha":782,"x_min":0,"x_max":0,"o":"m 368 1307 l 574 1229 l 574 1208 l 446 1033 l 265 1033 l 265 1056 m 392 608 b 444 779 404 661 421 725 l 528 972 l 782 972 l 782 958 l 511 371 l 511 0 l 271 0 l 271 371 l -3 958 l -3 972 l 254 972 l 336 779 b 389 608 358 725 375 660 "},"ŷ":{"ha":782,"x_min":0,"x_max":0,"o":"m 317 1049 l 97 1049 l 97 1071 l 271 1288 l 494 1288 l 667 1071 l 667 1049 l 450 1049 l 382 1147 m 392 608 b 444 779 404 661 421 725 l 528 972 l 782 972 l 782 958 l 511 371 l 511 0 l 271 0 l 271 371 l -3 958 l -3 972 l 254 972 l 336 779 b 389 608 358 725 375 660 "},"ÿ":{"ha":782,"x_min":0,"x_max":0,"o":"m 225 1039 b 103 1157 164 1039 103 1079 b 225 1276 103 1232 156 1276 b 346 1157 288 1276 346 1233 b 225 1039 346 1085 290 1039 m 550 1039 b 428 1157 492 1039 428 1079 b 550 1276 428 1232 485 1276 b 669 1157 614 1276 669 1232 b 550 1039 669 1085 615 1039 m 392 608 b 444 779 404 661 421 725 l 528 972 l 782 972 l 782 958 l 511 371 l 511 0 l 271 0 l 271 371 l -3 958 l -3 972 l 254 972 l 336 779 b 389 608 358 725 375 660 "},"ỳ":{"ha":782,"x_min":0,"x_max":0,"o":"m 179 1214 l 179 1235 l 386 1313 l 488 1061 l 488 1039 l 307 1039 m 392 608 b 444 779 404 661 421 725 l 528 972 l 782 972 l 782 958 l 511 371 l 511 0 l 271 0 l 271 371 l -3 958 l -3 972 l 254 972 l 336 779 b 389 608 358 725 375 660 "},"z":{"ha":725,"x_min":0,"x_max":0,"o":"m 375 226 l 683 226 l 683 0 l 26 0 l 26 36 l 331 751 l 54 751 l 54 972 l 681 972 l 681 935 "},"ź":{"ha":725,"x_min":0,"x_max":0,"o":"m 358 1318 l 565 1240 l 565 1219 l 438 1044 l 257 1044 l 257 1067 m 683 226 l 683 0 l 26 0 l 26 36 l 331 751 l 54 751 l 54 972 l 681 972 l 681 935 l 375 226 "},"ž":{"ha":725,"x_min":0,"x_max":0,"o":"m 439 1283 l 656 1283 l 656 1261 l 483 1044 l 258 1044 l 88 1261 l 88 1283 l 301 1283 l 371 1185 m 683 226 l 683 0 l 26 0 l 26 36 l 331 751 l 54 751 l 54 972 l 681 972 l 681 935 l 375 226 "},"ż":{"ha":725,"x_min":0,"x_max":0,"o":"m 364 1039 b 233 1165 292 1039 233 1088 b 364 1293 233 1243 289 1293 b 492 1165 436 1293 492 1246 b 364 1039 492 1089 436 1039 m 683 226 l 683 0 l 26 0 l 26 36 l 331 751 l 54 751 l 54 972 l 681 972 l 681 935 l 375 226 "},"ª":{"ha":974,"x_min":0,"x_max":0,"o":"m 490 519 l 353 679 l 317 642 l 456 481 l 319 324 l 356 286 l 488 443 l 622 288 l 658 326 l 525 482 l 661 642 l 624 679 m 69 482 b 489 903 69 714 257 903 b 910 482 721 903 910 714 b 489 63 910 250 721 63 b 69 482 257 63 69 250 "},"º":{"ha":974,"x_min":0,"x_max":0,"o":"m 490 519 l 353 679 l 317 642 l 456 481 l 319 324 l 356 286 l 488 443 l 622 288 l 658 326 l 525 482 l 661 642 l 624 679 m 69 482 b 489 903 69 714 257 903 b 910 482 721 903 910 714 b 489 63 910 250 721 63 b 69 482 257 63 69 250 "},"А":{"ha":853,"x_min":0,"x_max":0,"o":"m 608 0 l 565 121 l 289 121 l 246 0 l -6 0 l -6 15 l 368 986 l 488 986 l 857 15 l 857 0 m 497 318 b 426 594 451 458 442 508 b 357 318 407 499 397 453 "},"Б":{"ha":785,"x_min":0,"x_max":0,"o":"m 439 624 b 753 319 628 624 753 501 b 439 0 753 128 628 0 l 85 0 l 85 972 l 688 972 l 688 753 l 319 753 l 319 624 m 438 222 b 519 318 486 222 519 261 b 438 413 519 375 486 413 l 319 413 l 319 222 "},"В":{"ha":806,"x_min":0,"x_max":0,"o":"m 729 694 b 640 510 729 635 707 553 b 761 285 718 457 761 374 b 471 0 761 111 646 0 l 85 0 l 85 972 l 440 972 b 729 694 614 972 729 864 m 419 590 b 492 669 461 590 490 622 b 419 757 493 722 464 757 l 321 757 l 321 590 m 451 218 b 524 301 492 218 524 251 b 451 390 524 354 492 390 l 321 390 l 321 218 "},"Г":{"ha":622,"x_min":0,"x_max":0,"o":"m 324 0 b 85 0 244 0 165 0 l 85 972 b 607 972 256 972 436 972 l 607 750 l 324 750 "},"Ѓ":{"ha":974,"x_min":0,"x_max":0,"o":"m 490 519 l 353 679 l 317 642 l 456 481 l 319 324 l 356 286 l 488 443 l 622 288 l 658 326 l 525 482 l 661 642 l 624 679 m 69 482 b 489 903 69 714 257 903 b 910 482 721 903 910 714 b 489 63 910 250 721 63 b 69 482 257 63 69 250 "},"Ґ":{"ha":974,"x_min":0,"x_max":0,"o":"m 490 519 l 353 679 l 317 642 l 456 481 l 319 324 l 356 286 l 488 443 l 622 288 l 658 326 l 525 482 l 661 642 l 624 679 m 69 482 b 489 903 69 714 257 903 b 910 482 721 903 910 714 b 489 63 910 250 721 63 b 69 482 257 63 69 250 "},"Д":{"ha":938,"x_min":0,"x_max":0,"o":"m 801 972 l 801 215 l 881 215 l 881 -124 l 658 -124 l 658 0 l 257 0 l 257 -124 l 38 -124 l 38 215 b 150 339 122 215 142 243 l 211 972 m 382 331 b 340 210 381 292 371 235 l 561 210 l 561 754 l 417 754 "},"Е":{"ha":674,"x_min":0,"x_max":0,"o":"m 324 613 l 582 613 l 582 390 l 324 390 l 324 232 l 618 232 l 618 0 l 85 0 l 85 972 l 607 972 l 607 751 l 324 751 "},"Ё":{"ha":974,"x_min":0,"x_max":0,"o":"m 490 519 l 353 679 l 317 642 l 456 481 l 319 324 l 356 286 l 488 443 l 622 288 l 658 326 l 525 482 l 661 642 l 624 679 m 69 482 b 489 903 69 714 257 903 b 910 482 721 903 910 714 b 489 63 910 250 721 63 b 69 482 257 63 69 250 "},"Ж":{"ha":1254,"x_min":0,"x_max":0,"o":"m 803 374 b 746 368 779 371 772 368 l 746 0 l 507 0 l 507 368 b 453 374 482 368 474 371 l 289 0 l 18 0 l 18 24 l 243 472 b 151 735 199 531 175 618 b 53 799 139 799 93 810 l 53 969 b 363 803 193 1007 333 986 b 440 611 372 739 389 646 b 507 594 456 596 479 594 l 507 972 l 746 972 l 746 594 b 814 611 775 594 799 596 b 892 803 864 646 881 739 b 1200 969 921 986 1060 1007 l 1200 799 b 1103 735 1161 810 1115 799 b 1011 472 1079 618 1054 531 l 1236 24 l 1236 0 l 964 0 "},"З":{"ha":700,"x_min":0,"x_max":0,"o":"m 58 726 b 328 986 51 907 179 986 b 611 708 497 986 611 878 b 526 528 611 644 583 571 b 660 288 621 475 660 397 b 331 -14 660 104 528 -14 b 31 317 144 -14 31 97 l 236 317 b 331 196 236 240 278 196 b 422 303 386 196 422 236 b 335 415 422 357 399 415 l 251 415 l 251 613 l 322 613 b 394 703 375 613 394 661 b 328 786 394 764 361 786 b 269 726 299 786 269 767 "},"И":{"ha":894,"x_min":0,"x_max":0,"o":"m 85 972 l 325 972 l 325 511 l 735 981 l 810 981 l 810 0 l 569 0 l 569 485 l 156 -7 l 85 -7 "},"Й":{"ha":894,"x_min":0,"x_max":0,"o":"m 399 1271 b 479 1204 399 1226 433 1204 b 569 1271 525 1204 564 1226 l 693 1256 b 482 1036 690 1117 601 1036 b 275 1256 361 1036 276 1117 m 85 972 l 325 972 l 325 511 l 735 981 l 810 981 l 810 0 l 569 0 l 569 485 l 156 -7 l 85 -7 "},"К":{"ha":865,"x_min":0,"x_max":0,"o":"m 325 592 b 432 607 350 592 404 589 b 501 804 467 629 478 688 b 810 971 525 922 610 1018 l 810 800 b 721 731 767 804 733 790 b 622 472 694 614 665 532 b 847 38 697 328 769 182 l 847 0 l 575 0 l 411 375 b 325 371 392 371 351 371 l 325 0 l 85 0 l 85 972 l 325 972 "},"Ќ":{"ha":974,"x_min":0,"x_max":0,"o":"m 490 519 l 353 679 l 317 642 l 456 481 l 319 324 l 356 286 l 488 443 l 622 288 l 658 326 l 525 482 l 661 642 l 624 679 m 69 482 b 489 903 69 714 257 903 b 910 482 721 903 910 714 b 489 63 910 250 721 63 b 69 482 257 63 69 250 "},"Л":{"ha":871,"x_min":0,"x_max":0,"o":"m 369 300 b 14 6 347 18 264 -33 l 18 188 b 133 308 108 178 125 204 l 186 972 l 786 972 l 786 0 l 547 0 l 547 746 l 396 746 "},"М":{"ha":989,"x_min":0,"x_max":0,"o":"m 904 0 l 664 0 l 664 440 l 507 232 l 481 232 l 325 440 l 325 0 l 85 0 l 85 978 l 169 978 l 494 557 l 819 978 l 904 978 "},"Н":{"ha":869,"x_min":0,"x_max":0,"o":"m 325 389 l 325 0 l 85 0 l 85 972 l 325 972 l 325 621 l 544 621 l 544 972 l 785 972 l 785 0 l 544 0 l 544 389 "},"О":{"ha":936,"x_min":0,"x_max":0,"o":"m 893 486 b 469 -14 893 186 724 -14 b 43 486 214 -14 43 186 b 469 986 43 786 214 986 b 893 486 724 986 893 786 m 282 486 b 469 224 282 331 357 224 b 651 486 579 224 651 331 b 469 747 651 642 579 747 b 282 486 357 747 282 642 "},"П":{"ha":868,"x_min":0,"x_max":0,"o":"m 543 0 l 543 750 l 325 750 l 325 0 l 85 0 l 85 972 l 783 972 l 783 0 "},"Р":{"ha":781,"x_min":0,"x_max":0,"o":"m 429 972 b 754 608 631 972 761 826 b 429 258 754 394 624 258 l 325 258 l 325 1 l 85 1 l 85 972 m 429 474 b 525 615 486 474 525 531 b 429 753 525 697 486 753 l 321 753 l 321 474 "},"С":{"ha":896,"x_min":0,"x_max":0,"o":"m 43 485 b 465 986 43 786 213 986 b 858 614 638 986 831 874 l 628 614 b 465 757 603 714 547 757 b 282 486 356 757 282 649 b 467 219 282 326 356 219 b 629 374 549 219 611 268 l 861 374 b 465 -12 831 97 644 -12 b 43 485 213 -12 43 186 "},"Т":{"ha":657,"x_min":0,"x_max":0,"o":"m 636 972 l 636 750 l 446 750 l 446 0 l 213 0 l 213 750 l 21 750 l 21 972 "},"У":{"ha":779,"x_min":0,"x_max":0,"o":"m 0 972 l 264 972 l 358 739 b 403 542 376 681 390 615 l 406 542 b 446 739 414 613 429 679 l 531 972 l 789 972 l 789 960 l 506 229 b 242 -14 444 71 367 -12 b 61 24 192 -15 132 -6 l 93 201 b 168 182 121 189 146 182 b 256 271 211 182 231 207 l 281 340 l 0 954 "},"Ў":{"ha":974,"x_min":0,"x_max":0,"o":"m 490 519 l 353 679 l 317 642 l 456 481 l 319 324 l 356 286 l 488 443 l 622 288 l 658 326 l 525 482 l 661 642 l 624 679 m 69 482 b 489 903 69 714 257 903 b 910 482 721 903 910 714 b 489 63 910 250 721 63 b 69 482 257 63 69 250 "},"Ф":{"ha":1050,"x_min":0,"x_max":0,"o":"m 414 97 b 28 488 182 106 28 263 b 413 881 28 713 182 869 l 413 976 l 638 976 l 638 881 b 1022 488 868 871 1022 713 b 636 97 1022 263 868 106 l 636 -3 l 414 -3 m 268 488 b 417 307 268 388 328 315 l 417 667 b 268 488 328 663 268 590 m 782 488 b 633 667 782 590 722 663 l 633 307 b 782 488 722 315 782 388 "},"Х":{"ha":817,"x_min":0,"x_max":0,"o":"m 408 699 b 447 813 422 740 429 776 l 526 972 l 785 972 l 785 964 l 556 515 l 817 7 l 817 0 l 542 0 l 457 181 b 410 331 439 225 422 281 l 406 331 b 354 181 392 279 374 219 l 272 0 l 0 0 l 0 7 l 261 515 l 31 964 l 31 972 l 288 972 l 367 813 b 406 699 383 778 394 738 "},"Ч":{"ha":782,"x_min":0,"x_max":0,"o":"m 460 339 b 38 711 183 306 38 454 l 38 971 l 279 971 l 279 711 b 460 574 279 613 326 549 l 460 971 l 697 971 l 697 0 l 460 0 "},"Ц":{"ha":897,"x_min":0,"x_max":0,"o":"m 322 972 l 322 229 l 524 229 l 524 972 l 765 972 l 765 215 l 840 215 l 840 -110 l 656 -110 l 656 0 l 82 0 l 82 972 "},"Ш":{"ha":1228,"x_min":0,"x_max":0,"o":"m 325 229 l 494 229 l 494 972 l 735 972 l 735 229 l 903 229 l 903 972 l 1143 972 l 1143 0 l 85 0 l 85 972 l 325 972 "},"Щ":{"ha":1274,"x_min":0,"x_max":0,"o":"m 324 229 l 494 229 l 494 972 l 733 972 l 733 229 l 903 229 l 903 972 l 1142 972 l 1142 215 l 1217 215 l 1217 -110 l 1033 -110 l 1033 0 l 82 0 l 82 972 l 324 972 "},"Џ":{"ha":974,"x_min":0,"x_max":0,"o":"m 490 519 l 353 679 l 317 642 l 456 481 l 319 324 l 356 286 l 488 443 l 622 288 l 658 326 l 525 482 l 661 642 l 624 679 m 69 482 b 489 903 69 714 257 903 b 910 482 721 903 910 714 b 489 63 910 250 721 63 b 69 482 257 63 69 250 "},"Я":{"ha":829,"x_min":0,"x_max":0,"o":"m 190 367 b 68 639 104 431 69 528 b 401 972 68 839 201 972 l 744 972 l 744 1 l 504 1 l 504 306 l 413 306 l 288 1 l 25 1 l 25 14 m 508 753 l 403 753 b 306 635 344 753 306 706 b 403 513 306 561 344 513 l 508 513 "},"Ь":{"ha":779,"x_min":0,"x_max":0,"o":"m 325 679 l 429 679 b 754 349 624 679 754 550 b 429 0 754 139 631 0 l 85 0 l 85 971 l 325 971 m 321 219 l 429 219 b 525 342 486 219 525 268 b 429 468 525 418 486 468 l 321 468 "},"Ъ":{"ha":853,"x_min":0,"x_max":0,"o":"m 503 679 b 828 349 697 679 828 550 b 503 0 828 139 704 0 l 158 0 l 158 760 l 19 760 l 19 972 l 399 972 l 399 679 m 503 219 b 599 342 560 219 599 268 b 503 468 599 418 560 468 l 394 468 l 394 219 "},"Ы":{"ha":1185,"x_min":0,"x_max":0,"o":"m 861 972 l 1100 972 l 1100 0 l 861 0 m 325 679 l 429 679 b 754 349 624 679 754 550 b 429 0 754 139 631 0 l 85 0 l 85 971 l 325 971 m 321 219 l 429 219 b 525 342 486 219 525 268 b 429 468 525 418 486 468 l 321 468 "},"Љ":{"ha":974,"x_min":0,"x_max":0,"o":"m 490 519 l 353 679 l 317 642 l 456 481 l 319 324 l 356 286 l 488 443 l 622 288 l 658 326 l 525 482 l 661 642 l 624 679 m 69 482 b 489 903 69 714 257 903 b 910 482 721 903 910 714 b 489 63 910 250 721 63 b 69 482 257 63 69 250 "},"Њ":{"ha":974,"x_min":0,"x_max":0,"o":"m 490 519 l 353 679 l 317 642 l 456 481 l 319 324 l 356 286 l 488 443 l 622 288 l 658 326 l 525 482 l 661 642 l 624 679 m 69 482 b 489 903 69 714 257 903 b 910 482 721 903 910 714 b 489 63 910 250 721 63 b 69 482 257 63 69 250 "},"Ѕ":{"ha":974,"x_min":0,"x_max":0,"o":"m 490 519 l 353 679 l 317 642 l 456 481 l 319 324 l 356 286 l 488 443 l 622 288 l 658 326 l 525 482 l 661 642 l 624 679 m 69 482 b 489 903 69 714 257 903 b 910 482 721 903 910 714 b 489 63 910 250 721 63 b 69 482 257 63 69 250 "},"Є":{"ha":974,"x_min":0,"x_max":0,"o":"m 490 519 l 353 679 l 317 642 l 456 481 l 319 324 l 356 286 l 488 443 l 622 288 l 658 326 l 525 482 l 661 642 l 624 679 m 69 482 b 489 903 69 714 257 903 b 910 482 721 903 910 714 b 489 63 910 250 721 63 b 69 482 257 63 69 250 "},"Э":{"ha":897,"x_min":0,"x_max":0,"o":"m 438 757 b 272 614 356 757 299 713 l 42 614 b 438 985 69 874 261 985 b 854 486 643 985 854 818 b 428 -11 854 154 633 -11 b 31 372 250 -11 57 97 l 263 372 b 428 217 279 268 344 215 b 599 379 500 217 571 274 l 347 379 l 347 589 l 601 589 b 438 757 581 697 511 757 "},"І":{"ha":974,"x_min":0,"x_max":0,"o":"m 490 519 l 353 679 l 317 642 l 456 481 l 319 324 l 356 286 l 488 443 l 622 288 l 658 326 l 525 482 l 661 642 l 624 679 m 69 482 b 489 903 69 714 257 903 b 910 482 721 903 910 714 b 489 63 910 250 721 63 b 69 482 257 63 69 250 "},"Ї":{"ha":974,"x_min":0,"x_max":0,"o":"m 490 519 l 353 679 l 317 642 l 456 481 l 319 324 l 356 286 l 488 443 l 622 288 l 658 326 l 525 482 l 661 642 l 624 679 m 69 482 b 489 903 69 714 257 903 b 910 482 721 903 910 714 b 489 63 910 250 721 63 b 69 482 257 63 69 250 "},"Ј":{"ha":974,"x_min":0,"x_max":0,"o":"m 490 519 l 353 679 l 317 642 l 456 481 l 319 324 l 356 286 l 488 443 l 622 288 l 658 326 l 525 482 l 661 642 l 624 679 m 69 482 b 489 903 69 714 257 903 b 910 482 721 903 910 714 b 489 63 910 250 721 63 b 69 482 257 63 69 250 "},"Ћ":{"ha":974,"x_min":0,"x_max":0,"o":"m 490 519 l 353 679 l 317 642 l 456 481 l 319 324 l 356 286 l 488 443 l 622 288 l 658 326 l 525 482 l 661 642 l 624 679 m 69 482 b 489 903 69 714 257 903 b 910 482 721 903 910 714 b 489 63 910 250 721 63 b 69 482 257 63 69 250 "},"Ю":{"ha":1306,"x_min":0,"x_max":0,"o":"m 1263 486 b 836 -21 1263 147 1043 -22 b 422 390 651 -18 460 119 l 322 390 l 322 0 l 82 0 l 82 972 l 322 972 l 322 621 l 428 621 b 842 990 481 871 665 992 b 1263 486 1047 988 1263 819 m 654 486 b 839 219 654 308 750 219 b 1022 486 928 219 1022 308 b 836 747 1022 661 924 747 b 654 486 746 747 654 660 "},"Ђ":{"ha":974,"x_min":0,"x_max":0,"o":"m 490 519 l 353 679 l 317 642 l 456 481 l 319 324 l 356 286 l 488 443 l 622 288 l 658 326 l 525 482 l 661 642 l 624 679 m 69 482 b 489 903 69 714 257 903 b 910 482 721 903 910 714 b 489 63 910 250 721 63 b 69 482 257 63 69 250 "},"а":{"ha":853,"x_min":0,"x_max":0,"o":"m 608 0 l 565 121 l 289 121 l 246 0 l -6 0 l -6 15 l 368 986 l 488 986 l 857 15 l 857 0 m 497 318 b 426 594 451 458 442 508 b 357 318 407 499 397 453 "},"б":{"ha":785,"x_min":0,"x_max":0,"o":"m 439 624 b 753 319 628 624 753 501 b 439 0 753 128 628 0 l 85 0 l 85 972 l 688 972 l 688 753 l 319 753 l 319 624 m 438 222 b 519 318 486 222 519 261 b 438 413 519 375 486 413 l 319 413 l 319 222 "},"в":{"ha":806,"x_min":0,"x_max":0,"o":"m 729 694 b 640 510 729 635 707 553 b 761 285 718 457 761 374 b 471 0 761 111 646 0 l 85 0 l 85 972 l 440 972 b 729 694 614 972 729 864 m 419 590 b 492 669 461 590 490 622 b 419 757 493 722 464 757 l 321 757 l 321 590 m 451 218 b 524 301 492 218 524 251 b 451 390 524 354 492 390 l 321 390 l 321 218 "},"г":{"ha":622,"x_min":0,"x_max":0,"o":"m 324 0 b 85 0 244 0 165 0 l 85 972 b 607 972 256 972 436 972 l 607 750 l 324 750 "},"ѓ":{"ha":974,"x_min":0,"x_max":0,"o":"m 490 519 l 353 679 l 317 642 l 456 481 l 319 324 l 356 286 l 488 443 l 622 288 l 658 326 l 525 482 l 661 642 l 624 679 m 69 482 b 489 903 69 714 257 903 b 910 482 721 903 910 714 b 489 63 910 250 721 63 b 69 482 257 63 69 250 "},"ґ":{"ha":974,"x_min":0,"x_max":0,"o":"m 490 519 l 353 679 l 317 642 l 456 481 l 319 324 l 356 286 l 488 443 l 622 288 l 658 326 l 525 482 l 661 642 l 624 679 m 69 482 b 489 903 69 714 257 903 b 910 482 721 903 910 714 b 489 63 910 250 721 63 b 69 482 257 63 69 250 "},"д":{"ha":885,"x_min":0,"x_max":0,"o":"m 24 215 l 100 215 l 378 986 l 497 986 l 782 215 l 861 215 l 861 -121 l 654 -121 l 654 0 l 232 0 l 232 -121 l 24 -121 m 479 396 b 436 592 463 458 449 521 b 397 396 424 519 411 457 l 344 218 l 532 218 "},"е":{"ha":674,"x_min":0,"x_max":0,"o":"m 324 613 l 582 613 l 582 390 l 324 390 l 324 232 l 618 232 l 618 0 l 85 0 l 85 972 l 607 972 l 607 751 l 324 751 "},"ё":{"ha":974,"x_min":0,"x_max":0,"o":"m 490 519 l 353 679 l 317 642 l 456 481 l 319 324 l 356 286 l 488 443 l 622 288 l 658 326 l 525 482 l 661 642 l 624 679 m 69 482 b 489 903 69 714 257 903 b 910 482 721 903 910 714 b 489 63 910 250 721 63 b 69 482 257 63 69 250 "},"ж":{"ha":1254,"x_min":0,"x_max":0,"o":"m 803 374 b 746 368 779 371 772 368 l 746 0 l 507 0 l 507 368 b 453 374 482 368 474 371 l 289 0 l 18 0 l 18 24 l 243 472 b 151 735 199 531 175 618 b 53 799 139 799 93 810 l 53 969 b 363 803 193 1007 333 986 b 440 611 372 739 389 646 b 507 594 456 596 479 594 l 507 972 l 746 972 l 746 594 b 814 611 775 594 799 596 b 892 803 864 646 881 739 b 1200 969 921 986 1060 1007 l 1200 799 b 1103 735 1161 810 1115 799 b 1011 472 1079 618 1054 531 l 1236 24 l 1236 0 l 964 0 "},"з":{"ha":700,"x_min":0,"x_max":0,"o":"m 58 726 b 328 986 51 907 179 986 b 611 708 497 986 611 878 b 526 528 611 644 583 571 b 660 288 621 475 660 397 b 331 -14 660 104 528 -14 b 31 317 144 -14 31 97 l 236 317 b 331 196 236 240 278 196 b 422 303 386 196 422 236 b 335 415 422 357 399 415 l 251 415 l 251 613 l 322 613 b 394 703 375 613 394 661 b 328 786 394 764 361 786 b 269 726 299 786 269 767 "},"и":{"ha":894,"x_min":0,"x_max":0,"o":"m 85 972 l 325 972 l 325 511 l 735 981 l 810 981 l 810 0 l 569 0 l 569 485 l 156 -7 l 85 -7 "},"й":{"ha":894,"x_min":0,"x_max":0,"o":"m 399 1271 b 479 1204 399 1226 433 1204 b 569 1271 525 1204 564 1226 l 693 1256 b 482 1036 690 1117 601 1036 b 275 1256 361 1036 276 1117 m 85 972 l 325 972 l 325 511 l 735 981 l 810 981 l 810 0 l 569 0 l 569 485 l 156 -7 l 85 -7 "},"к":{"ha":865,"x_min":0,"x_max":0,"o":"m 325 592 b 432 607 350 592 404 589 b 501 804 467 629 478 688 b 810 971 525 922 610 1018 l 810 800 b 721 731 767 804 733 790 b 622 472 694 614 665 532 b 847 38 697 328 769 182 l 847 0 l 575 0 l 411 375 b 325 371 392 371 351 371 l 325 0 l 85 0 l 85 972 l 325 972 "},"ќ":{"ha":974,"x_min":0,"x_max":0,"o":"m 490 519 l 353 679 l 317 642 l 456 481 l 319 324 l 356 286 l 488 443 l 622 288 l 658 326 l 525 482 l 661 642 l 624 679 m 69 482 b 489 903 69 714 257 903 b 910 482 721 903 910 714 b 489 63 910 250 721 63 b 69 482 257 63 69 250 "},"л":{"ha":878,"x_min":0,"x_max":0,"o":"m -7 8 l 376 986 l 500 986 l 888 7 l 888 0 l 629 0 l 513 325 b 439 574 482 401 460 490 b 367 325 418 489 394 400 l 254 0 l -7 0 "},"м":{"ha":989,"x_min":0,"x_max":0,"o":"m 904 0 l 664 0 l 664 440 l 507 232 l 481 232 l 325 440 l 325 0 l 85 0 l 85 978 l 169 978 l 494 557 l 819 978 l 904 978 "},"н":{"ha":869,"x_min":0,"x_max":0,"o":"m 325 389 l 325 0 l 85 0 l 85 972 l 325 972 l 325 621 l 544 621 l 544 972 l 785 972 l 785 0 l 544 0 l 544 389 "},"о":{"ha":936,"x_min":0,"x_max":0,"o":"m 893 486 b 469 -14 893 186 724 -14 b 43 486 214 -14 43 186 b 469 986 43 786 214 986 b 893 486 724 986 893 786 m 282 486 b 469 224 282 331 357 224 b 651 486 579 224 651 331 b 469 747 651 642 579 747 b 282 486 357 747 282 642 "},"п":{"ha":868,"x_min":0,"x_max":0,"o":"m 543 0 l 543 750 l 325 750 l 325 0 l 85 0 l 85 972 l 783 972 l 783 0 "},"р":{"ha":781,"x_min":0,"x_max":0,"o":"m 429 972 b 754 608 631 972 761 826 b 429 258 754 394 624 258 l 325 258 l 325 1 l 85 1 l 85 972 m 429 474 b 525 615 486 474 525 531 b 429 753 525 697 486 753 l 321 753 l 321 474 "},"с":{"ha":896,"x_min":0,"x_max":0,"o":"m 43 485 b 465 986 43 786 213 986 b 858 614 638 986 831 874 l 628 614 b 465 757 603 714 547 757 b 282 486 356 757 282 649 b 467 219 282 326 356 219 b 629 374 549 219 611 268 l 861 374 b 465 -12 831 97 644 -12 b 43 485 213 -12 43 186 "},"т":{"ha":657,"x_min":0,"x_max":0,"o":"m 636 972 l 636 750 l 446 750 l 446 0 l 213 0 l 213 750 l 21 750 l 21 972 "},"у":{"ha":779,"x_min":0,"x_max":0,"o":"m 0 972 l 264 972 l 358 739 b 403 542 376 681 390 615 l 406 542 b 446 739 414 613 429 679 l 531 972 l 789 972 l 789 960 l 506 229 b 242 -14 444 71 367 -12 b 61 24 192 -15 132 -6 l 93 201 b 168 182 121 189 146 182 b 256 271 211 182 231 207 l 281 340 l 0 954 "},"ў":{"ha":974,"x_min":0,"x_max":0,"o":"m 490 519 l 353 679 l 317 642 l 456 481 l 319 324 l 356 286 l 488 443 l 622 288 l 658 326 l 525 482 l 661 642 l 624 679 m 69 482 b 489 903 69 714 257 903 b 910 482 721 903 910 714 b 489 63 910 250 721 63 b 69 482 257 63 69 250 "},"ф":{"ha":1050,"x_min":0,"x_max":0,"o":"m 414 97 b 28 488 182 106 28 263 b 413 881 28 713 182 869 l 413 976 l 638 976 l 638 881 b 1022 488 868 871 1022 713 b 636 97 1022 263 868 106 l 636 -3 l 414 -3 m 268 488 b 417 307 268 388 328 315 l 417 667 b 268 488 328 663 268 590 m 782 488 b 633 667 782 590 722 663 l 633 307 b 782 488 722 315 782 388 "},"х":{"ha":817,"x_min":0,"x_max":0,"o":"m 408 699 b 447 813 422 740 429 776 l 526 972 l 785 972 l 785 964 l 556 515 l 817 7 l 817 0 l 542 0 l 457 181 b 410 331 439 225 422 281 l 406 331 b 354 181 392 279 374 219 l 272 0 l 0 0 l 0 7 l 261 515 l 31 964 l 31 972 l 288 972 l 367 813 b 406 699 383 778 394 738 "},"ч":{"ha":782,"x_min":0,"x_max":0,"o":"m 460 339 b 38 711 183 306 38 454 l 38 971 l 279 971 l 279 711 b 460 574 279 613 326 549 l 460 971 l 697 971 l 697 0 l 460 0 "},"ц":{"ha":897,"x_min":0,"x_max":0,"o":"m 322 972 l 322 229 l 524 229 l 524 972 l 765 972 l 765 215 l 840 215 l 840 -110 l 656 -110 l 656 0 l 82 0 l 82 972 "},"ш":{"ha":1228,"x_min":0,"x_max":0,"o":"m 325 229 l 494 229 l 494 972 l 735 972 l 735 229 l 903 229 l 903 972 l 1143 972 l 1143 0 l 85 0 l 85 972 l 325 972 "},"щ":{"ha":1274,"x_min":0,"x_max":0,"o":"m 324 229 l 494 229 l 494 972 l 733 972 l 733 229 l 903 229 l 903 972 l 1142 972 l 1142 215 l 1217 215 l 1217 -110 l 1033 -110 l 1033 0 l 82 0 l 82 972 l 324 972 "},"џ":{"ha":974,"x_min":0,"x_max":0,"o":"m 490 519 l 353 679 l 317 642 l 456 481 l 319 324 l 356 286 l 488 443 l 622 288 l 658 326 l 525 482 l 661 642 l 624 679 m 69 482 b 489 903 69 714 257 903 b 910 482 721 903 910 714 b 489 63 910 250 721 63 b 69 482 257 63 69 250 "},"ь":{"ha":779,"x_min":0,"x_max":0,"o":"m 325 679 l 429 679 b 754 349 624 679 754 550 b 429 0 754 139 631 0 l 85 0 l 85 971 l 325 971 m 321 219 l 429 219 b 525 342 486 219 525 268 b 429 468 525 418 486 468 l 321 468 "},"ъ":{"ha":853,"x_min":0,"x_max":0,"o":"m 503 679 b 828 349 697 679 828 550 b 503 0 828 139 704 0 l 158 0 l 158 760 l 19 760 l 19 972 l 399 972 l 399 679 m 503 219 b 599 342 560 219 599 268 b 503 468 599 418 560 468 l 394 468 l 394 219 "},"ы":{"ha":1185,"x_min":0,"x_max":0,"o":"m 861 972 l 1100 972 l 1100 0 l 861 0 m 325 679 l 429 679 b 754 349 624 679 754 550 b 429 0 754 139 631 0 l 85 0 l 85 971 l 325 971 m 321 219 l 429 219 b 525 342 486 219 525 268 b 429 468 525 418 486 468 l 321 468 "},"љ":{"ha":974,"x_min":0,"x_max":0,"o":"m 490 519 l 353 679 l 317 642 l 456 481 l 319 324 l 356 286 l 488 443 l 622 288 l 658 326 l 525 482 l 661 642 l 624 679 m 69 482 b 489 903 69 714 257 903 b 910 482 721 903 910 714 b 489 63 910 250 721 63 b 69 482 257 63 69 250 "},"њ":{"ha":974,"x_min":0,"x_max":0,"o":"m 490 519 l 353 679 l 317 642 l 456 481 l 319 324 l 356 286 l 488 443 l 622 288 l 658 326 l 525 482 l 661 642 l 624 679 m 69 482 b 489 903 69 714 257 903 b 910 482 721 903 910 714 b 489 63 910 250 721 63 b 69 482 257 63 69 250 "},"є":{"ha":974,"x_min":0,"x_max":0,"o":"m 490 519 l 353 679 l 317 642 l 456 481 l 319 324 l 356 286 l 488 443 l 622 288 l 658 326 l 525 482 l 661 642 l 624 679 m 69 482 b 489 903 69 714 257 903 b 910 482 721 903 910 714 b 489 63 910 250 721 63 b 69 482 257 63 69 250 "},"э":{"ha":897,"x_min":0,"x_max":0,"o":"m 438 757 b 272 614 356 757 299 713 l 42 614 b 438 985 69 874 261 985 b 854 486 643 985 854 818 b 428 -11 854 154 633 -11 b 31 372 250 -11 57 97 l 263 372 b 428 217 279 268 344 215 b 599 379 500 217 571 274 l 347 379 l 347 589 l 601 589 b 438 757 581 697 511 757 "},"ю":{"ha":1306,"x_min":0,"x_max":0,"o":"m 1263 486 b 836 -21 1263 147 1043 -22 b 422 390 651 -18 460 119 l 322 390 l 322 0 l 82 0 l 82 972 l 322 972 l 322 621 l 428 621 b 842 990 481 871 665 992 b 1263 486 1047 988 1263 819 m 654 486 b 839 219 654 308 750 219 b 1022 486 928 219 1022 308 b 836 747 1022 661 924 747 b 654 486 746 747 654 660 "},"я":{"ha":829,"x_min":0,"x_max":0,"o":"m 190 367 b 68 639 104 431 69 528 b 401 972 68 839 201 972 l 744 972 l 744 1 l 504 1 l 504 306 l 413 306 l 288 1 l 25 1 l 25 14 m 508 753 l 403 753 b 306 635 344 753 306 706 b 403 513 306 561 344 513 l 508 513 "},"ђ":{"ha":974,"x_min":0,"x_max":0,"o":"m 490 519 l 353 679 l 317 642 l 456 481 l 319 324 l 356 286 l 488 443 l 622 288 l 658 326 l 525 482 l 661 642 l 624 679 m 69 482 b 489 903 69 714 257 903 b 910 482 721 903 910 714 b 489 63 910 250 721 63 b 69 482 257 63 69 250 "},"ѕ":{"ha":974,"x_min":0,"x_max":0,"o":"m 490 519 l 353 679 l 317 642 l 456 481 l 319 324 l 356 286 l 488 443 l 622 288 l 658 326 l 525 482 l 661 642 l 624 679 m 69 482 b 489 903 69 714 257 903 b 910 482 721 903 910 714 b 489 63 910 250 721 63 b 69 482 257 63 69 250 "},"і":{"ha":974,"x_min":0,"x_max":0,"o":"m 490 519 l 353 679 l 317 642 l 456 481 l 319 324 l 356 286 l 488 443 l 622 288 l 658 326 l 525 482 l 661 642 l 624 679 m 69 482 b 489 903 69 714 257 903 b 910 482 721 903 910 714 b 489 63 910 250 721 63 b 69 482 257 63 69 250 "},"ї":{"ha":974,"x_min":0,"x_max":0,"o":"m 490 519 l 353 679 l 317 642 l 456 481 l 319 324 l 356 286 l 488 443 l 622 288 l 658 326 l 525 482 l 661 642 l 624 679 m 69 482 b 489 903 69 714 257 903 b 910 482 721 903 910 714 b 489 63 910 250 721 63 b 69 482 257 63 69 250 "},"ј":{"ha":974,"x_min":0,"x_max":0,"o":"m 490 519 l 353 679 l 317 642 l 456 481 l 319 324 l 356 286 l 488 443 l 622 288 l 658 326 l 525 482 l 661 642 l 624 679 m 69 482 b 489 903 69 714 257 903 b 910 482 721 903 910 714 b 489 63 910 250 721 63 b 69 482 257 63 69 250 "},"ћ":{"ha":974,"x_min":0,"x_max":0,"o":"m 490 519 l 353 679 l 317 642 l 456 481 l 319 324 l 356 286 l 488 443 l 622 288 l 658 326 l 525 482 l 661 642 l 624 679 m 69 482 b 489 903 69 714 257 903 b 910 482 721 903 910 714 b 489 63 910 250 721 63 b 69 482 257 63 69 250 "},"µ":{"ha":974,"x_min":0,"x_max":0,"o":"m 490 519 l 353 679 l 317 642 l 456 481 l 319 324 l 356 286 l 488 443 l 622 288 l 658 326 l 525 482 l 661 642 l 624 679 m 69 482 b 489 903 69 714 257 903 b 910 482 721 903 910 714 b 489 63 910 250 721 63 b 69 482 257 63 69 250 "},"⁄":{"ha":638,"x_min":0,"x_max":0,"o":"m 201 -83 l -14 -83 l 438 1013 l 653 1013 "},"½":{"ha":974,"x_min":0,"x_max":0,"o":"m 490 519 l 353 679 l 317 642 l 456 481 l 319 324 l 356 286 l 488 443 l 622 288 l 658 326 l 525 482 l 661 642 l 624 679 m 69 482 b 489 903 69 714 257 903 b 910 482 721 903 910 714 b 489 63 910 250 721 63 b 69 482 257 63 69 250 "},"¼":{"ha":974,"x_min":0,"x_max":0,"o":"m 490 519 l 353 679 l 317 642 l 456 481 l 319 324 l 356 286 l 488 443 l 622 288 l 658 326 l 525 482 l 661 642 l 624 679 m 69 482 b 489 903 69 714 257 903 b 910 482 721 903 910 714 b 489 63 910 250 721 63 b 69 482 257 63 69 250 "},"¾":{"ha":974,"x_min":0,"x_max":0,"o":"m 490 519 l 353 679 l 317 642 l 456 481 l 319 324 l 356 286 l 488 443 l 622 288 l 658 326 l 525 482 l 661 642 l 624 679 m 69 482 b 489 903 69 714 257 903 b 910 482 721 903 910 714 b 489 63 910 250 721 63 b 69 482 257 63 69 250 "},"¹":{"ha":974,"x_min":0,"x_max":0,"o":"m 490 519 l 353 679 l 317 642 l 456 481 l 319 324 l 356 286 l 488 443 l 622 288 l 658 326 l 525 482 l 661 642 l 624 679 m 69 482 b 489 903 69 714 257 903 b 910 482 721 903 910 714 b 489 63 910 250 721 63 b 69 482 257 63 69 250 "},"²":{"ha":974,"x_min":0,"x_max":0,"o":"m 490 519 l 353 679 l 317 642 l 456 481 l 319 324 l 356 286 l 488 443 l 622 288 l 658 326 l 525 482 l 661 642 l 624 679 m 69 482 b 489 903 69 714 257 903 b 910 482 721 903 910 714 b 489 63 910 250 721 63 b 69 482 257 63 69 250 "},"³":{"ha":974,"x_min":0,"x_max":0,"o":"m 490 519 l 353 679 l 317 642 l 456 481 l 319 324 l 356 286 l 488 443 l 622 288 l 658 326 l 525 482 l 661 642 l 624 679 m 69 482 b 489 903 69 714 257 903 b 910 482 721 903 910 714 b 489 63 910 250 721 63 b 69 482 257 63 69 250 "},"*":{"ha":974,"x_min":0,"x_max":0,"o":"m 490 519 l 353 679 l 317 642 l 456 481 l 319 324 l 356 286 l 488 443 l 622 288 l 658 326 l 525 482 l 661 642 l 624 679 m 69 482 b 489 903 69 714 257 903 b 910 482 721 903 910 714 b 489 63 910 250 721 63 b 69 482 257 63 69 250 "},"\\":{"ha":974,"x_min":0,"x_max":0,"o":"m 490 519 l 353 679 l 317 642 l 456 481 l 319 324 l 356 286 l 488 443 l 622 288 l 658 326 l 525 482 l 661 642 l 624 679 m 69 482 b 489 903 69 714 257 903 b 910 482 721 903 910 714 b 489 63 910 250 721 63 b 69 482 257 63 69 250 "},"•":{"ha":974,"x_min":0,"x_max":0,"o":"m 490 519 l 353 679 l 317 642 l 456 481 l 319 324 l 356 286 l 488 443 l 622 288 l 658 326 l 525 482 l 661 642 l 624 679 m 69 482 b 489 903 69 714 257 903 b 910 482 721 903 910 714 b 489 63 910 250 721 63 b 69 482 257 63 69 250 "},":":{"ha":974,"x_min":0,"x_max":0,"o":"m 490 519 l 353 679 l 317 642 l 456 481 l 319 324 l 356 286 l 488 443 l 622 288 l 658 326 l 525 482 l 661 642 l 624 679 m 69 482 b 489 903 69 714 257 903 b 910 482 721 903 910 714 b 489 63 910 250 721 63 b 69 482 257 63 69 250 "},",":{"ha":358,"x_min":0,"x_max":0,"o":"m 307 101 b 239 -147 307 78 294 6 l 110 -147 l 142 -21 b 50 101 89 -7 50 39 b 179 229 50 181 107 229 b 307 101 242 229 307 183 "},"…":{"ha":974,"x_min":0,"x_max":0,"o":"m 490 519 l 353 679 l 317 642 l 456 481 l 319 324 l 356 286 l 488 443 l 622 288 l 658 326 l 525 482 l 661 642 l 624 679 m 69 482 b 489 903 69 714 257 903 b 910 482 721 903 910 714 b 489 63 910 250 721 63 b 69 482 257 63 69 250 "},"!":{"ha":386,"x_min":0,"x_max":0,"o":"m 308 269 l 81 269 l 61 975 l 322 975 m 193 -21 b 67 106 121 -21 67 28 b 193 233 67 182 124 233 b 322 106 265 233 322 185 b 193 -21 322 28 268 -21 "},"¡":{"ha":974,"x_min":0,"x_max":0,"o":"m 490 519 l 353 679 l 317 642 l 456 481 l 319 324 l 356 286 l 488 443 l 622 288 l 658 326 l 525 482 l 661 642 l 624 679 m 69 482 b 489 903 69 714 257 903 b 910 482 721 903 910 714 b 489 63 910 250 721 63 b 69 482 257 63 69 250 "},"#":{"ha":974,"x_min":0,"x_max":0,"o":"m 490 519 l 353 679 l 317 642 l 456 481 l 319 324 l 356 286 l 488 443 l 622 288 l 658 326 l 525 482 l 661 642 l 624 679 m 69 482 b 489 903 69 714 257 903 b 910 482 721 903 910 714 b 489 63 910 250 721 63 b 69 482 257 63 69 250 "},".":{"ha":357,"x_min":0,"x_max":0,"o":"m 179 -25 b 50 101 108 -25 50 22 b 179 229 50 179 108 229 b 307 101 250 229 307 179 b 179 -25 307 22 251 -25 "},"·":{"ha":974,"x_min":0,"x_max":0,"o":"m 490 519 l 353 679 l 317 642 l 456 481 l 319 324 l 356 286 l 488 443 l 622 288 l 658 326 l 525 482 l 661 642 l 624 679 m 69 482 b 489 903 69 714 257 903 b 910 482 721 903 910 714 b 489 63 910 250 721 63 b 69 482 257 63 69 250 "},"?":{"ha":638,"x_min":0,"x_max":0,"o":"m 203 272 b 338 600 192 440 283 501 b 368 683 351 625 364 651 b 304 765 374 732 347 765 b 236 665 260 765 232 725 l 39 665 b 322 986 25 882 175 986 b 592 711 457 986 592 900 b 422 272 592 510 422 451 m 315 -14 b 185 113 238 -14 185 36 b 315 240 185 189 238 240 b 442 113 392 240 442 189 b 315 -14 442 36 392 -14 "},"¿":{"ha":974,"x_min":0,"x_max":0,"o":"m 490 519 l 353 679 l 317 642 l 456 481 l 319 324 l 356 286 l 488 443 l 622 288 l 658 326 l 525 482 l 661 642 l 624 679 m 69 482 b 489 903 69 714 257 903 b 910 482 721 903 910 714 b 489 63 910 250 721 63 b 69 482 257 63 69 250 "},"\"":{"ha":974,"x_min":0,"x_max":0,"o":"m 490 519 l 353 679 l 317 642 l 456 481 l 319 324 l 356 286 l 488 443 l 622 288 l 658 326 l 525 482 l 661 642 l 624 679 m 69 482 b 489 903 69 714 257 903 b 910 482 721 903 910 714 b 489 63 910 250 721 63 b 69 482 257 63 69 250 "},"'":{"ha":974,"x_min":0,"x_max":0,"o":"m 490 519 l 353 679 l 317 642 l 456 481 l 319 324 l 356 286 l 488 443 l 622 288 l 658 326 l 525 482 l 661 642 l 624 679 m 69 482 b 489 903 69 714 257 903 b 910 482 721 903 910 714 b 489 63 910 250 721 63 b 69 482 257 63 69 250 "},";":{"ha":974,"x_min":0,"x_max":0,"o":"m 490 519 l 353 679 l 317 642 l 456 481 l 319 324 l 356 286 l 488 443 l 622 288 l 658 326 l 525 482 l 661 642 l 624 679 m 69 482 b 489 903 69 714 257 903 b 910 482 721 903 910 714 b 489 63 910 250 721 63 b 69 482 257 63 69 250 "},"/":{"ha":974,"x_min":0,"x_max":0,"o":"m 490 519 l 353 679 l 317 642 l 456 481 l 319 324 l 356 286 l 488 443 l 622 288 l 658 326 l 525 482 l 661 642 l 624 679 m 69 482 b 489 903 69 714 257 903 b 910 482 721 903 910 714 b 489 63 910 250 721 63 b 69 482 257 63 69 250 "},"_":{"ha":974,"x_min":0,"x_max":0,"o":"m 490 519 l 353 679 l 317 642 l 456 481 l 319 324 l 356 286 l 488 443 l 622 288 l 658 326 l 525 482 l 661 642 l 624 679 m 69 482 b 489 903 69 714 257 903 b 910 482 721 903 910 714 b 489 63 910 250 721 63 b 69 482 257 63 69 250 "},"{":{"ha":974,"x_min":0,"x_max":0,"o":"m 490 519 l 353 679 l 317 642 l 456 481 l 319 324 l 356 286 l 488 443 l 622 288 l 658 326 l 525 482 l 661 642 l 624 679 m 69 482 b 489 903 69 714 257 903 b 910 482 721 903 910 714 b 489 63 910 250 721 63 b 69 482 257 63 69 250 "},"}":{"ha":974,"x_min":0,"x_max":0,"o":"m 490 519 l 353 679 l 317 642 l 456 481 l 319 324 l 356 286 l 488 443 l 622 288 l 658 326 l 525 482 l 661 642 l 624 679 m 69 482 b 489 903 69 714 257 903 b 910 482 721 903 910 714 b 489 63 910 250 721 63 b 69 482 257 63 69 250 "},"[":{"ha":974,"x_min":0,"x_max":0,"o":"m 490 519 l 353 679 l 317 642 l 456 481 l 319 324 l 356 286 l 488 443 l 622 288 l 658 326 l 525 482 l 661 642 l 624 679 m 69 482 b 489 903 69 714 257 903 b 910 482 721 903 910 714 b 489 63 910 250 721 63 b 69 482 257 63 69 250 "},"]":{"ha":974,"x_min":0,"x_max":0,"o":"m 490 519 l 353 679 l 317 642 l 456 481 l 319 324 l 356 286 l 488 443 l 622 288 l 658 326 l 525 482 l 661 642 l 624 679 m 69 482 b 489 903 69 714 257 903 b 910 482 721 903 910 714 b 489 63 910 250 721 63 b 69 482 257 63 69 250 "},"(":{"ha":974,"x_min":0,"x_max":0,"o":"m 490 519 l 353 679 l 317 642 l 456 481 l 319 324 l 356 286 l 488 443 l 622 288 l 658 326 l 525 482 l 661 642 l 624 679 m 69 482 b 489 903 69 714 257 903 b 910 482 721 903 910 714 b 489 63 910 250 721 63 b 69 482 257 63 69 250 "},")":{"ha":974,"x_min":0,"x_max":0,"o":"m 490 519 l 353 679 l 317 642 l 456 481 l 319 324 l 356 286 l 488 443 l 622 288 l 658 326 l 525 482 l 661 642 l 624 679 m 69 482 b 489 903 69 714 257 903 b 910 482 721 903 910 714 b 489 63 910 250 721 63 b 69 482 257 63 69 250 "},"—":{"ha":974,"x_min":0,"x_max":0,"o":"m 490 519 l 353 679 l 317 642 l 456 481 l 319 324 l 356 286 l 488 443 l 622 288 l 658 326 l 525 482 l 661 642 l 624 679 m 69 482 b 489 903 69 714 257 903 b 910 482 721 903 910 714 b 489 63 910 250 721 63 b 69 482 257 63 69 250 "},"–":{"ha":974,"x_min":0,"x_max":0,"o":"m 490 519 l 353 679 l 317 642 l 456 481 l 319 324 l 356 286 l 488 443 l 622 288 l 658 326 l 525 482 l 661 642 l 624 679 m 69 482 b 489 903 69 714 257 903 b 910 482 721 903 910 714 b 489 63 910 250 721 63 b 69 482 257 63 69 250 "},"-":{"ha":974,"x_min":0,"x_max":0,"o":"m 490 519 l 353 679 l 317 642 l 456 481 l 319 324 l 356 286 l 488 443 l 622 288 l 658 326 l 525 482 l 661 642 l 624 679 m 69 482 b 489 903 69 714 257 903 b 910 482 721 903 910 714 b 489 63 910 250 721 63 b 69 482 257 63 69 250 "},"«":{"ha":974,"x_min":0,"x_max":0,"o":"m 490 519 l 353 679 l 317 642 l 456 481 l 319 324 l 356 286 l 488 443 l 622 288 l 658 326 l 525 482 l 661 642 l 624 679 m 69 482 b 489 903 69 714 257 903 b 910 482 721 903 910 714 b 489 63 910 250 721 63 b 69 482 257 63 69 250 "},"»":{"ha":974,"x_min":0,"x_max":0,"o":"m 490 519 l 353 679 l 317 642 l 456 481 l 319 324 l 356 286 l 488 443 l 622 288 l 658 326 l 525 482 l 661 642 l 624 679 m 69 482 b 489 903 69 714 257 903 b 910 482 721 903 910 714 b 489 63 910 250 721 63 b 69 482 257 63 69 250 "},"‹":{"ha":974,"x_min":0,"x_max":0,"o":"m 490 519 l 353 679 l 317 642 l 456 481 l 319 324 l 356 286 l 488 443 l 622 288 l 658 326 l 525 482 l 661 642 l 624 679 m 69 482 b 489 903 69 714 257 903 b 910 482 721 903 910 714 b 489 63 910 250 721 63 b 69 482 257 63 69 250 "},"›":{"ha":974,"x_min":0,"x_max":0,"o":"m 490 519 l 353 679 l 317 642 l 456 481 l 319 324 l 356 286 l 488 443 l 622 288 l 658 326 l 525 482 l 661 642 l 624 679 m 69 482 b 489 903 69 714 257 903 b 910 482 721 903 910 714 b 489 63 910 250 721 63 b 69 482 257 63 69 250 "},"„":{"ha":974,"x_min":0,"x_max":0,"o":"m 490 519 l 353 679 l 317 642 l 456 481 l 319 324 l 356 286 l 488 443 l 622 288 l 658 326 l 525 482 l 661 642 l 624 679 m 69 482 b 489 903 69 714 257 903 b 910 482 721 903 910 714 b 489 63 910 250 721 63 b 69 482 257 63 69 250 "},"“":{"ha":974,"x_min":0,"x_max":0,"o":"m 490 519 l 353 679 l 317 642 l 456 481 l 319 324 l 356 286 l 488 443 l 622 288 l 658 326 l 525 482 l 661 642 l 624 679 m 69 482 b 489 903 69 714 257 903 b 910 482 721 903 910 714 b 489 63 910 250 721 63 b 69 482 257 63 69 250 "},"”":{"ha":974,"x_min":0,"x_max":0,"o":"m 490 519 l 353 679 l 317 642 l 456 481 l 319 324 l 356 286 l 488 443 l 622 288 l 658 326 l 525 482 l 661 642 l 624 679 m 69 482 b 489 903 69 714 257 903 b 910 482 721 903 910 714 b 489 63 910 250 721 63 b 69 482 257 63 69 250 "},"‘":{"ha":974,"x_min":0,"x_max":0,"o":"m 490 519 l 353 679 l 317 642 l 456 481 l 319 324 l 356 286 l 488 443 l 622 288 l 658 326 l 525 482 l 661 642 l 624 679 m 69 482 b 489 903 69 714 257 903 b 910 482 721 903 910 714 b 489 63 910 250 721 63 b 69 482 257 63 69 250 "},"’":{"ha":974,"x_min":0,"x_max":0,"o":"m 490 519 l 353 679 l 317 642 l 456 481 l 319 324 l 356 286 l 488 443 l 622 288 l 658 326 l 525 482 l 661 642 l 624 679 m 69 482 b 489 903 69 714 257 903 b 910 482 721 903 910 714 b 489 63 910 250 721 63 b 69 482 257 63 69 250 "},"‚":{"ha":974,"x_min":0,"x_max":0,"o":"m 490 519 l 353 679 l 317 642 l 456 481 l 319 324 l 356 286 l 488 443 l 622 288 l 658 326 l 525 482 l 661 642 l 624 679 m 69 482 b 489 903 69 714 257 903 b 910 482 721 903 910 714 b 489 63 910 250 721 63 b 69 482 257 63 69 250 "}," ":{"ha":268,"x_min":0,"x_max":0,"o":""},"ƒ":{"ha":974,"x_min":0,"x_max":0,"o":"m 490 519 l 353 679 l 317 642 l 456 481 l 319 324 l 356 286 l 488 443 l 622 288 l 658 326 l 525 482 l 661 642 l 624 679 m 69 482 b 489 903 69 714 257 903 b 910 482 721 903 910 714 b 489 63 910 250 721 63 b 69 482 257 63 69 250 "},"€":{"ha":974,"x_min":0,"x_max":0,"o":"m 490 519 l 353 679 l 317 642 l 456 481 l 319 324 l 356 286 l 488 443 l 622 288 l 658 326 l 525 482 l 661 642 l 624 679 m 69 482 b 489 903 69 714 257 903 b 910 482 721 903 910 714 b 489 63 910 250 721 63 b 69 482 257 63 69 250 "},"¢":{"ha":974,"x_min":0,"x_max":0,"o":"m 490 519 l 353 679 l 317 642 l 456 481 l 319 324 l 356 286 l 488 443 l 622 288 l 658 326 l 525 482 l 661 642 l 624 679 m 69 482 b 489 903 69 714 257 903 b 910 482 721 903 910 714 b 489 63 910 250 721 63 b 69 482 257 63 69 250 "},"¤":{"ha":974,"x_min":0,"x_max":0,"o":"m 490 519 l 353 679 l 317 642 l 456 481 l 319 324 l 356 286 l 488 443 l 622 288 l 658 326 l 525 482 l 661 642 l 624 679 m 69 482 b 489 903 69 714 257 903 b 910 482 721 903 910 714 b 489 63 910 250 721 63 b 69 482 257 63 69 250 "},"$":{"ha":974,"x_min":0,"x_max":0,"o":"m 490 519 l 353 679 l 317 642 l 456 481 l 319 324 l 356 286 l 488 443 l 622 288 l 658 326 l 525 482 l 661 642 l 624 679 m 69 482 b 489 903 69 714 257 903 b 910 482 721 903 910 714 b 489 63 910 250 721 63 b 69 482 257 63 69 250 "},"£":{"ha":974,"x_min":0,"x_max":0,"o":"m 490 519 l 353 679 l 317 642 l 456 481 l 319 324 l 356 286 l 488 443 l 622 288 l 658 326 l 525 482 l 661 642 l 624 679 m 69 482 b 489 903 69 714 257 903 b 910 482 721 903 910 714 b 489 63 910 250 721 63 b 69 482 257 63 69 250 "},"¥":{"ha":974,"x_min":0,"x_max":0,"o":"m 490 519 l 353 679 l 317 642 l 456 481 l 319 324 l 356 286 l 488 443 l 622 288 l 658 326 l 525 482 l 661 642 l 624 679 m 69 482 b 489 903 69 714 257 903 b 910 482 721 903 910 714 b 489 63 910 250 721 63 b 69 482 257 63 69 250 "},"~":{"ha":974,"x_min":0,"x_max":0,"o":"m 490 519 l 353 679 l 317 642 l 456 481 l 319 324 l 356 286 l 488 443 l 622 288 l 658 326 l 525 482 l 661 642 l 624 679 m 69 482 b 489 903 69 714 257 903 b 910 482 721 903 910 714 b 489 63 910 250 721 63 b 69 482 257 63 69 250 "},"÷":{"ha":974,"x_min":0,"x_max":0,"o":"m 490 519 l 353 679 l 317 642 l 456 481 l 319 324 l 356 286 l 488 443 l 622 288 l 658 326 l 525 482 l 661 642 l 624 679 m 69 482 b 489 903 69 714 257 903 b 910 482 721 903 910 714 b 489 63 910 250 721 63 b 69 482 257 63 69 250 "},"=":{"ha":974,"x_min":0,"x_max":0,"o":"m 490 519 l 353 679 l 317 642 l 456 481 l 319 324 l 356 286 l 488 443 l 622 288 l 658 326 l 525 482 l 661 642 l 624 679 m 69 482 b 489 903 69 714 257 903 b 910 482 721 903 910 714 b 489 63 910 250 721 63 b 69 482 257 63 69 250 "},">":{"ha":974,"x_min":0,"x_max":0,"o":"m 490 519 l 353 679 l 317 642 l 456 481 l 319 324 l 356 286 l 488 443 l 622 288 l 658 326 l 525 482 l 661 642 l 624 679 m 69 482 b 489 903 69 714 257 903 b 910 482 721 903 910 714 b 489 63 910 250 721 63 b 69 482 257 63 69 250 "},"<":{"ha":974,"x_min":0,"x_max":0,"o":"m 490 519 l 353 679 l 317 642 l 456 481 l 319 324 l 356 286 l 488 443 l 622 288 l 658 326 l 525 482 l 661 642 l 624 679 m 69 482 b 489 903 69 714 257 903 b 910 482 721 903 910 714 b 489 63 910 250 721 63 b 69 482 257 63 69 250 "},"¬":{"ha":974,"x_min":0,"x_max":0,"o":"m 490 519 l 353 679 l 317 642 l 456 481 l 319 324 l 356 286 l 488 443 l 622 288 l 658 326 l 525 482 l 661 642 l 624 679 m 69 482 b 489 903 69 714 257 903 b 910 482 721 903 910 714 b 489 63 910 250 721 63 b 69 482 257 63 69 250 "},"−":{"ha":663,"x_min":0,"x_max":0,"o":"m 592 389 l 71 389 l 71 592 l 592 592 "},"×":{"ha":974,"x_min":0,"x_max":0,"o":"m 490 519 l 353 679 l 317 642 l 456 481 l 319 324 l 356 286 l 488 443 l 622 288 l 658 326 l 525 482 l 661 642 l 624 679 m 69 482 b 489 903 69 714 257 903 b 910 482 721 903 910 714 b 489 63 910 250 721 63 b 69 482 257 63 69 250 "},"%":{"ha":974,"x_min":0,"x_max":0,"o":"m 490 519 l 353 679 l 317 642 l 456 481 l 319 324 l 356 286 l 488 443 l 622 288 l 658 326 l 525 482 l 661 642 l 624 679 m 69 482 b 489 903 69 714 257 903 b 910 482 721 903 910 714 b 489 63 910 250 721 63 b 69 482 257 63 69 250 "},"‰":{"ha":974,"x_min":0,"x_max":0,"o":"m 490 519 l 353 679 l 317 642 l 456 481 l 319 324 l 356 286 l 488 443 l 622 288 l 658 326 l 525 482 l 661 642 l 624 679 m 69 482 b 489 903 69 714 257 903 b 910 482 721 903 910 714 b 489 63 910 250 721 63 b 69 482 257 63 69 250 "},"+":{"ha":974,"x_min":0,"x_max":0,"o":"m 490 519 l 353 679 l 317 642 l 456 481 l 319 324 l 356 286 l 488 443 l 622 288 l 658 326 l 525 482 l 661 642 l 624 679 m 69 482 b 489 903 69 714 257 903 b 910 482 721 903 910 714 b 489 63 910 250 721 63 b 69 482 257 63 69 250 "},"±":{"ha":974,"x_min":0,"x_max":0,"o":"m 490 519 l 353 679 l 317 642 l 456 481 l 319 324 l 356 286 l 488 443 l 622 288 l 658 326 l 525 482 l 661 642 l 624 679 m 69 482 b 489 903 69 714 257 903 b 910 482 721 903 910 714 b 489 63 910 250 721 63 b 69 482 257 63 69 250 "},"↔":{"ha":974,"x_min":0,"x_max":0,"o":"m 490 519 l 353 679 l 317 642 l 456 481 l 319 324 l 356 286 l 488 443 l 622 288 l 658 326 l 525 482 l 661 642 l 624 679 m 69 482 b 489 903 69 714 257 903 b 910 482 721 903 910 714 b 489 63 910 250 721 63 b 69 482 257 63 69 250 "},"↓":{"ha":974,"x_min":0,"x_max":0,"o":"m 490 519 l 353 679 l 317 642 l 456 481 l 319 324 l 356 286 l 488 443 l 622 288 l 658 326 l 525 482 l 661 642 l 624 679 m 69 482 b 489 903 69 714 257 903 b 910 482 721 903 910 714 b 489 63 910 250 721 63 b 69 482 257 63 69 250 "},"←":{"ha":974,"x_min":0,"x_max":0,"o":"m 490 519 l 353 679 l 317 642 l 456 481 l 319 324 l 356 286 l 488 443 l 622 288 l 658 326 l 525 482 l 661 642 l 624 679 m 69 482 b 489 903 69 714 257 903 b 910 482 721 903 910 714 b 489 63 910 250 721 63 b 69 482 257 63 69 250 "},"→":{"ha":974,"x_min":0,"x_max":0,"o":"m 490 519 l 353 679 l 317 642 l 456 481 l 319 324 l 356 286 l 488 443 l 622 288 l 658 326 l 525 482 l 661 642 l 624 679 m 69 482 b 489 903 69 714 257 903 b 910 482 721 903 910 714 b 489 63 910 250 721 63 b 69 482 257 63 69 250 "},"↑":{"ha":974,"x_min":0,"x_max":0,"o":"m 490 519 l 353 679 l 317 642 l 456 481 l 319 324 l 356 286 l 488 443 l 622 288 l 658 326 l 525 482 l 661 642 l 624 679 m 69 482 b 489 903 69 714 257 903 b 910 482 721 903 910 714 b 489 63 910 250 721 63 b 69 482 257 63 69 250 "},"↕":{"ha":974,"x_min":0,"x_max":0,"o":"m 490 519 l 353 679 l 317 642 l 456 481 l 319 324 l 356 286 l 488 443 l 622 288 l 658 326 l 525 482 l 661 642 l 624 679 m 69 482 b 489 903 69 714 257 903 b 910 482 721 903 910 714 b 489 63 910 250 721 63 b 69 482 257 63 69 250 "},"↖":{"ha":974,"x_min":0,"x_max":0,"o":"m 490 519 l 353 679 l 317 642 l 456 481 l 319 324 l 356 286 l 488 443 l 622 288 l 658 326 l 525 482 l 661 642 l 624 679 m 69 482 b 489 903 69 714 257 903 b 910 482 721 903 910 714 b 489 63 910 250 721 63 b 69 482 257 63 69 250 "},"↗":{"ha":974,"x_min":0,"x_max":0,"o":"m 490 519 l 353 679 l 317 642 l 456 481 l 319 324 l 356 286 l 488 443 l 622 288 l 658 326 l 525 482 l 661 642 l 624 679 m 69 482 b 489 903 69 714 257 903 b 910 482 721 903 910 714 b 489 63 910 250 721 63 b 69 482 257 63 69 250 "},"↘":{"ha":974,"x_min":0,"x_max":0,"o":"m 490 519 l 353 679 l 317 642 l 456 481 l 319 324 l 356 286 l 488 443 l 622 288 l 658 326 l 525 482 l 661 642 l 624 679 m 69 482 b 489 903 69 714 257 903 b 910 482 721 903 910 714 b 489 63 910 250 721 63 b 69 482 257 63 69 250 "},"↙":{"ha":974,"x_min":0,"x_max":0,"o":"m 490 519 l 353 679 l 317 642 l 456 481 l 319 324 l 356 286 l 488 443 l 622 288 l 658 326 l 525 482 l 661 642 l 624 679 m 69 482 b 489 903 69 714 257 903 b 910 482 721 903 910 714 b 489 63 910 250 721 63 b 69 482 257 63 69 250 "},"№":{"ha":1576,"x_min":0,"x_max":0,"o":"m 93 0 l 93 976 l 168 976 l 578 497 l 578 972 l 818 972 l 818 -3 l 749 -3 l 333 474 l 333 0 m 1538 338 b 1236 -14 1538 128 1417 -12 b 931 338 1053 -15 931 125 b 1236 683 931 544 1053 683 b 1538 338 1417 683 1538 544 m 1154 338 b 1236 193 1154 249 1188 192 b 1317 338 1285 194 1317 253 b 1236 476 1317 419 1285 475 b 1154 338 1188 478 1154 422 "},"&":{"ha":758,"x_min":0,"x_max":0,"o":"m 417 728 b 368 788 417 764 397 788 b 318 711 338 788 318 761 b 408 638 318 667 354 638 l 408 432 l 372 432 b 282 313 318 432 282 385 b 371 196 282 243 318 196 b 461 314 425 196 461 243 l 460 640 l 725 640 l 725 446 l 656 446 l 656 314 b 368 -14 656 117 540 -14 b 47 304 175 -14 47 114 b 172 551 47 406 93 500 b 96 729 121 593 96 664 b 368 986 96 883 204 986 b 624 728 529 986 632 883 "},"^":{"ha":974,"x_min":0,"x_max":0,"o":"m 490 519 l 353 679 l 317 642 l 456 481 l 319 324 l 356 286 l 488 443 l 622 288 l 658 326 l 525 482 l 661 642 l 624 679 m 69 482 b 489 903 69 714 257 903 b 910 482 721 903 910 714 b 489 63 910 250 721 63 b 69 482 257 63 69 250 "},"@":{"ha":974,"x_min":0,"x_max":0,"o":"m 490 519 l 353 679 l 317 642 l 456 481 l 319 324 l 356 286 l 488 443 l 622 288 l 658 326 l 525 482 l 661 642 l 624 679 m 69 482 b 489 903 69 714 257 903 b 910 482 721 903 910 714 b 489 63 910 250 721 63 b 69 482 257 63 69 250 "},"|":{"ha":974,"x_min":0,"x_max":0,"o":"m 490 519 l 353 679 l 317 642 l 456 481 l 319 324 l 356 286 l 488 443 l 622 288 l 658 326 l 525 482 l 661 642 l 624 679 m 69 482 b 489 903 69 714 257 903 b 910 482 721 903 910 714 b 489 63 910 250 721 63 b 69 482 257 63 69 250 "},"¦":{"ha":974,"x_min":0,"x_max":0,"o":"m 490 519 l 353 679 l 317 642 l 456 481 l 319 324 l 356 286 l 488 443 l 622 288 l 658 326 l 525 482 l 661 642 l 624 679 m 69 482 b 489 903 69 714 257 903 b 910 482 721 903 910 714 b 489 63 910 250 721 63 b 69 482 257 63 69 250 "},"©":{"ha":974,"x_min":0,"x_max":0,"o":"m 490 519 l 353 679 l 317 642 l 456 481 l 319 324 l 356 286 l 488 443 l 622 288 l 658 326 l 525 482 l 661 642 l 624 679 m 69 482 b 489 903 69 714 257 903 b 910 482 721 903 910 714 b 489 63 910 250 721 63 b 69 482 257 63 69 250 "},"†":{"ha":571,"x_min":0,"x_max":0,"o":"m 183 990 l 386 990 l 386 683 l 532 683 l 532 485 l 386 485 l 386 -126 l 183 -126 l 183 485 l 39 485 l 39 683 l 183 683 "},"‡":{"ha":619,"x_min":0,"x_max":0,"o":"m 206 528 l 54 528 l 54 722 l 206 722 l 206 990 l 408 990 l 408 722 l 565 722 l 565 528 l 408 528 l 408 351 l 565 351 l 565 157 l 408 157 l 408 -126 l 206 -126 l 206 157 l 54 157 l 54 351 l 206 351 "},"°":{"ha":974,"x_min":0,"x_max":0,"o":"m 490 519 l 353 679 l 317 642 l 456 481 l 319 324 l 356 286 l 488 443 l 622 288 l 658 326 l 525 482 l 661 642 l 624 679 m 69 482 b 489 903 69 714 257 903 b 910 482 721 903 910 714 b 489 63 910 250 721 63 b 69 482 257 63 69 250 "},"¶":{"ha":974,"x_min":0,"x_max":0,"o":"m 490 519 l 353 679 l 317 642 l 456 481 l 319 324 l 356 286 l 488 443 l 622 288 l 658 326 l 525 482 l 661 642 l 624 679 m 69 482 b 489 903 69 714 257 903 b 910 482 721 903 910 714 b 489 63 910 250 721 63 b 69 482 257 63 69 250 "},"®":{"ha":974,"x_min":0,"x_max":0,"o":"m 490 519 l 353 679 l 317 642 l 456 481 l 319 324 l 356 286 l 488 443 l 622 288 l 658 326 l 525 482 l 661 642 l 624 679 m 69 482 b 489 903 69 714 257 903 b 910 482 721 903 910 714 b 489 63 910 250 721 63 b 69 482 257 63 69 250 "},"§":{"ha":974,"x_min":0,"x_max":0,"o":"m 490 519 l 353 679 l 317 642 l 456 481 l 319 324 l 356 286 l 488 443 l 622 288 l 658 326 l 525 482 l 661 642 l 624 679 m 69 482 b 489 903 69 714 257 903 b 910 482 721 903 910 714 b 489 63 910 250 721 63 b 69 482 257 63 69 250 "},"™":{"ha":974,"x_min":0,"x_max":0,"o":"m 490 519 l 353 679 l 317 642 l 456 481 l 319 324 l 356 286 l 488 443 l 622 288 l 658 326 l 525 482 l 661 642 l 624 679 m 69 482 b 489 903 69 714 257 903 b 910 482 721 903 910 714 b 489 63 910 250 721 63 b 69 482 257 63 69 250 "},"´":{"ha":357,"x_min":0,"x_max":0,"o":"m 114 1004 l 321 926 l 321 906 l 193 731 l 13 731 l 13 753 "},"˘":{"ha":624,"x_min":0,"x_max":0,"o":"m 244 972 b 315 901 249 931 276 903 b 386 972 354 901 382 929 l 571 972 b 313 722 571 822 468 722 b 57 972 164 722 61 822 "},"ˇ":{"ha":626,"x_min":0,"x_max":0,"o":"m 379 974 l 596 974 l 596 951 l 424 735 l 199 735 l 28 951 l 28 974 l 242 974 l 311 875 "},"¸":{"ha":463,"x_min":0,"x_max":0,"o":"m 310 -72 b 394 -182 368 -85 394 -125 b 271 -337 394 -271 349 -326 b 79 -297 208 -347 131 -331 l 93 -169 b 151 -192 110 -181 132 -192 b 199 -167 172 -192 194 -186 b 135 -111 208 -126 153 -111 l 165 22 l 331 22 "},"ˆ":{"ha":626,"x_min":0,"x_max":0,"o":"m 250 735 l 32 735 l 32 757 l 204 974 l 429 974 l 600 757 l 600 735 l 385 735 l 315 833 "},"¨":{"ha":682,"x_min":0,"x_max":0,"o":"m 176 754 b 54 872 115 754 54 794 b 176 992 54 947 107 992 b 297 872 239 992 297 949 b 176 754 297 800 242 754 m 501 754 b 379 872 443 754 379 794 b 501 992 379 947 436 992 b 622 872 565 992 622 947 b 501 754 622 800 568 754 "},"˙":{"ha":379,"x_min":0,"x_max":0,"o":"m 172 736 b 43 863 100 736 43 785 b 172 990 43 940 99 990 b 301 863 244 990 301 943 b 172 736 301 786 246 736 "},"`":{"ha":396,"x_min":0,"x_max":0,"o":"m 51 926 l 258 1004 l 360 753 l 360 731 l 179 731 l 51 906 "},"˝":{"ha":611,"x_min":0,"x_max":0,"o":"m 307 953 l 307 933 l 196 724 l 22 724 l 22 744 l 107 999 m 590 924 l 590 903 l 479 724 l 306 724 l 306 744 l 392 979 "},"¯":{"ha":589,"x_min":0,"x_max":0,"o":"m 496 783 l 94 783 l 94 971 l 496 971 "},"˛":{"ha":429,"x_min":0,"x_max":0,"o":"m 314 10 b 207 -129 240 -14 190 -76 b 350 -135 224 -186 317 -165 l 381 -264 b 210 -318 336 -299 268 -321 b 53 -189 146 -315 69 -278 b 163 17 39 -110 76 -26 "},"˚":{"ha":447,"x_min":0,"x_max":0,"o":"m 222 696 b 46 867 117 696 46 764 b 221 1042 46 972 115 1042 b 392 867 324 1042 392 972 b 222 696 392 764 324 696 m 167 867 b 221 814 167 835 189 814 b 271 867 251 814 271 835 b 221 921 271 900 251 921 b 167 867 189 921 167 900 "},"˜":{"ha":593,"x_min":0,"x_max":0,"o":"m 29 819 b 186 990 46 921 108 990 b 422 979 293 990 399 846 l 558 928 b 401 756 546 832 501 756 b 157 760 310 756 201 892 "}}}
